<svg width="349" height="634" viewBox="0 0 349 634" fill="none" xmlns="http://www.w3.org/2000/svg">
<path d="M349 70C349 108.66 317.66 140 279 140C240.34 140 209 108.66 209 70C209 31.3401 240.34 0 279 0C317.66 0 349 31.3401 349 70Z" fill="#FEABA9"/>
<g filter="url(#filter0_i)">
<path d="M277.715 163.887H279.086C279.591 163.887 280 164.295 280 164.799V235.914C280 236.418 279.591 236.826 279.086 236.826H277.715V163.887Z" fill="url(#paint0_linear)"/>
</g>
<path d="M278.715 164.887H279V235.826H278.715V164.887Z" stroke="#292929" stroke-opacity="0.2" stroke-width="2" style="mix-blend-mode:multiply"/>
<g filter="url(#filter1_i)">
<path d="M277.715 260.076H279.086C279.591 260.076 280 260.484 280 260.987V291.531C280 292.034 279.591 292.442 279.086 292.442H277.715V260.076Z" fill="url(#paint1_linear)"/>
</g>
<path d="M278.715 261.076H279V291.442H278.715V261.076Z" stroke="#292929" stroke-opacity="0.2" stroke-width="2" style="mix-blend-mode:multiply"/>
<mask id="path-6-inside-1" fill="white">
<path d="M13.9161 77.8906C9 85.893 9 96.7865 9 118.574V568.426C9 590.214 9 601.107 13.9161 609.109C16.6668 613.587 20.441 617.352 24.9299 620.096C32.113 624.487 41.6198 624.946 59.2093 624.994C59.377 624.995 59.4608 624.995 59.527 624.986C59.5852 624.977 59.5821 624.978 59.6389 624.962C59.7033 624.945 59.8618 624.875 60.1788 624.736C60.46 624.613 60.7709 624.544 61.0978 624.544H63.3828C63.712 624.544 64.0249 624.614 64.3077 624.739C64.6248 624.879 64.7833 624.949 64.8477 624.967C64.9045 624.982 64.9012 624.982 64.9595 624.99C65.0257 625 65.108 625 65.2727 625C66.2977 625 67.3228 625 68.3479 625C68.5125 625 68.5949 625 68.661 624.99C68.7193 624.982 68.7161 624.982 68.7729 624.967C68.8373 624.949 68.9958 624.879 69.3128 624.739C69.5956 624.614 69.9086 624.544 70.2378 624.544H72.5228C72.852 624.544 73.1649 624.614 73.4477 624.739C73.7647 624.879 73.9233 624.949 73.9877 624.967C74.0445 624.982 74.0412 624.982 74.0995 624.99C74.1656 625 74.248 625 74.4127 625H77.4878C77.6525 625 77.7349 625 77.801 624.99C77.8593 624.982 77.856 624.982 77.9128 624.967C77.9772 624.949 78.1358 624.879 78.4528 624.739C78.7356 624.614 79.0485 624.544 79.3777 624.544H81.6627C81.9919 624.544 82.3049 624.614 82.5877 624.739C82.9047 624.879 83.0632 624.949 83.1276 624.967C83.1844 624.982 83.1812 624.982 83.2395 624.99C83.3056 625 83.388 625 83.5527 625H86.6278C86.7925 625 86.8748 625 86.941 624.99C86.9993 624.982 86.996 624.982 87.0528 624.967C87.1172 624.949 87.2757 624.879 87.5928 624.739C87.8755 624.614 88.1885 624.544 88.5177 624.544H90.8027C91.1319 624.544 91.4449 624.614 91.7276 624.739C92.0447 624.879 92.2032 624.949 92.2676 624.967C92.3244 624.982 92.3211 624.982 92.3794 624.99C92.4456 625 92.5279 625 92.6926 625H95.7678C95.9324 625 96.0148 625 96.0809 624.99C96.1392 624.982 96.136 624.982 96.1928 624.967C96.2572 624.949 96.4157 624.879 96.7327 624.739C97.0155 624.614 97.3285 624.544 97.6577 624.544H99.9427C100.272 624.544 100.585 624.614 100.868 624.739C101.185 624.879 101.343 624.949 101.408 624.967C101.464 624.982 101.461 624.982 101.519 624.99C101.586 625 101.668 625 101.833 625H127.758C127.922 625 128.005 625 128.071 624.99C128.129 624.982 128.126 624.982 128.183 624.967C128.247 624.949 128.406 624.879 128.723 624.739C129.005 624.614 129.318 624.544 129.648 624.544H157.981C158.311 624.544 158.624 624.614 158.906 624.739C159.223 624.879 159.382 624.949 159.446 624.967C159.503 624.982 159.5 624.982 159.558 624.99C159.624 625 159.707 625 159.871 625H185.796C185.961 625 186.043 625 186.11 624.99C186.168 624.982 186.165 624.982 186.221 624.967C186.286 624.949 186.444 624.879 186.761 624.739C187.044 624.614 187.357 624.544 187.686 624.544H189.971C190.301 624.544 190.613 624.614 190.896 624.739C191.213 624.879 191.372 624.949 191.436 624.967C191.493 624.982 191.49 624.982 191.548 624.99C191.614 625 191.697 625 191.861 625H194.936C195.101 625 195.183 625 195.25 624.99C195.308 624.982 195.305 624.982 195.361 624.967C195.426 624.949 195.584 624.879 195.901 624.739C196.184 624.614 196.497 624.544 196.826 624.544H199.111C199.441 624.544 199.753 624.614 200.036 624.739C200.353 624.879 200.512 624.949 200.576 624.967C200.633 624.982 200.63 624.982 200.688 624.99C200.754 625 200.837 625 201.001 625H204.076C204.241 625 204.323 625 204.39 624.99C204.448 624.982 204.445 624.982 204.501 624.967C204.566 624.949 204.724 624.879 205.041 624.739C205.324 624.614 205.637 624.544 205.966 624.544H208.251C208.58 624.544 208.893 624.614 209.176 624.739C209.493 624.879 209.652 624.949 209.716 624.967C209.773 624.982 209.77 624.982 209.828 624.99C209.894 625 209.976 625 210.141 625H213.216C213.381 625 213.463 625 213.53 624.99C213.588 624.982 213.585 624.982 213.641 624.967C213.706 624.949 213.864 624.879 214.181 624.739C214.464 624.614 214.777 624.544 215.106 624.544H217.391C217.72 624.544 218.033 624.614 218.316 624.739C218.633 624.879 218.792 624.949 218.856 624.967C218.913 624.982 218.91 624.982 218.968 624.99C219.034 625 219.116 625 219.281 625C220.306 625 221.331 625 222.356 625C222.521 625 222.603 625 222.669 624.99C222.728 624.982 222.725 624.982 222.781 624.967C222.846 624.949 223.004 624.879 223.321 624.739C223.604 624.614 223.917 624.544 224.246 624.544H226.531C226.858 624.544 227.169 624.613 227.45 624.736C227.766 624.875 227.925 624.944 227.989 624.962C228.046 624.977 228.043 624.977 228.101 624.985C228.167 624.995 228.251 624.994 228.419 624.994C245.863 624.942 255.319 624.468 262.471 620.096C266.96 617.352 270.734 613.587 273.484 609.109C278.401 601.107 278.401 590.214 278.401 568.426V118.574C278.401 96.7865 278.401 85.893 273.484 77.8906C270.734 73.4127 266.96 69.6479 262.471 66.9039C254.448 62 243.528 62 221.687 62H65.7135C43.8726 62 32.9521 62 24.9299 66.9039C20.441 69.6479 16.6668 73.4127 13.9161 77.8906Z"/>
</mask>
<g filter="url(#filter2_ii)">
<path d="M13.9161 77.8906C9 85.893 9 96.7865 9 118.574V568.426C9 590.214 9 601.107 13.9161 609.109C16.6668 613.587 20.441 617.352 24.9299 620.096C32.113 624.487 41.6198 624.946 59.2093 624.994C59.377 624.995 59.4608 624.995 59.527 624.986C59.5852 624.977 59.5821 624.978 59.6389 624.962C59.7033 624.945 59.8618 624.875 60.1788 624.736C60.46 624.613 60.7709 624.544 61.0978 624.544H63.3828C63.712 624.544 64.0249 624.614 64.3077 624.739C64.6248 624.879 64.7833 624.949 64.8477 624.967C64.9045 624.982 64.9012 624.982 64.9595 624.99C65.0257 625 65.108 625 65.2727 625C66.2977 625 67.3228 625 68.3479 625C68.5125 625 68.5949 625 68.661 624.99C68.7193 624.982 68.7161 624.982 68.7729 624.967C68.8373 624.949 68.9958 624.879 69.3128 624.739C69.5956 624.614 69.9086 624.544 70.2378 624.544H72.5228C72.852 624.544 73.1649 624.614 73.4477 624.739C73.7647 624.879 73.9233 624.949 73.9877 624.967C74.0445 624.982 74.0412 624.982 74.0995 624.99C74.1656 625 74.248 625 74.4127 625H77.4878C77.6525 625 77.7349 625 77.801 624.99C77.8593 624.982 77.856 624.982 77.9128 624.967C77.9772 624.949 78.1358 624.879 78.4528 624.739C78.7356 624.614 79.0485 624.544 79.3777 624.544H81.6627C81.9919 624.544 82.3049 624.614 82.5877 624.739C82.9047 624.879 83.0632 624.949 83.1276 624.967C83.1844 624.982 83.1812 624.982 83.2395 624.99C83.3056 625 83.388 625 83.5527 625H86.6278C86.7925 625 86.8748 625 86.941 624.99C86.9993 624.982 86.996 624.982 87.0528 624.967C87.1172 624.949 87.2757 624.879 87.5928 624.739C87.8755 624.614 88.1885 624.544 88.5177 624.544H90.8027C91.1319 624.544 91.4449 624.614 91.7276 624.739C92.0447 624.879 92.2032 624.949 92.2676 624.967C92.3244 624.982 92.3211 624.982 92.3794 624.99C92.4456 625 92.5279 625 92.6926 625H95.7678C95.9324 625 96.0148 625 96.0809 624.99C96.1392 624.982 96.136 624.982 96.1928 624.967C96.2572 624.949 96.4157 624.879 96.7327 624.739C97.0155 624.614 97.3285 624.544 97.6577 624.544H99.9427C100.272 624.544 100.585 624.614 100.868 624.739C101.185 624.879 101.343 624.949 101.408 624.967C101.464 624.982 101.461 624.982 101.519 624.99C101.586 625 101.668 625 101.833 625H127.758C127.922 625 128.005 625 128.071 624.99C128.129 624.982 128.126 624.982 128.183 624.967C128.247 624.949 128.406 624.879 128.723 624.739C129.005 624.614 129.318 624.544 129.648 624.544H157.981C158.311 624.544 158.624 624.614 158.906 624.739C159.223 624.879 159.382 624.949 159.446 624.967C159.503 624.982 159.5 624.982 159.558 624.99C159.624 625 159.707 625 159.871 625H185.796C185.961 625 186.043 625 186.11 624.99C186.168 624.982 186.165 624.982 186.221 624.967C186.286 624.949 186.444 624.879 186.761 624.739C187.044 624.614 187.357 624.544 187.686 624.544H189.971C190.301 624.544 190.613 624.614 190.896 624.739C191.213 624.879 191.372 624.949 191.436 624.967C191.493 624.982 191.49 624.982 191.548 624.99C191.614 625 191.697 625 191.861 625H194.936C195.101 625 195.183 625 195.25 624.99C195.308 624.982 195.305 624.982 195.361 624.967C195.426 624.949 195.584 624.879 195.901 624.739C196.184 624.614 196.497 624.544 196.826 624.544H199.111C199.441 624.544 199.753 624.614 200.036 624.739C200.353 624.879 200.512 624.949 200.576 624.967C200.633 624.982 200.63 624.982 200.688 624.99C200.754 625 200.837 625 201.001 625H204.076C204.241 625 204.323 625 204.39 624.99C204.448 624.982 204.445 624.982 204.501 624.967C204.566 624.949 204.724 624.879 205.041 624.739C205.324 624.614 205.637 624.544 205.966 624.544H208.251C208.58 624.544 208.893 624.614 209.176 624.739C209.493 624.879 209.652 624.949 209.716 624.967C209.773 624.982 209.77 624.982 209.828 624.99C209.894 625 209.976 625 210.141 625H213.216C213.381 625 213.463 625 213.53 624.99C213.588 624.982 213.585 624.982 213.641 624.967C213.706 624.949 213.864 624.879 214.181 624.739C214.464 624.614 214.777 624.544 215.106 624.544H217.391C217.72 624.544 218.033 624.614 218.316 624.739C218.633 624.879 218.792 624.949 218.856 624.967C218.913 624.982 218.91 624.982 218.968 624.99C219.034 625 219.116 625 219.281 625C220.306 625 221.331 625 222.356 625C222.521 625 222.603 625 222.669 624.99C222.728 624.982 222.725 624.982 222.781 624.967C222.846 624.949 223.004 624.879 223.321 624.739C223.604 624.614 223.917 624.544 224.246 624.544H226.531C226.858 624.544 227.169 624.613 227.45 624.736C227.766 624.875 227.925 624.944 227.989 624.962C228.046 624.977 228.043 624.977 228.101 624.985C228.167 624.995 228.251 624.994 228.419 624.994C245.863 624.942 255.319 624.468 262.471 620.096C266.96 617.352 270.734 613.587 273.484 609.109C278.401 601.107 278.401 590.214 278.401 568.426V118.574C278.401 96.7865 278.401 85.893 273.484 77.8906C270.734 73.4127 266.96 69.6479 262.471 66.9039C254.448 62 243.528 62 221.687 62H65.7135C43.8726 62 32.9521 62 24.9299 66.9039C20.441 69.6479 16.6668 73.4127 13.9161 77.8906Z" fill="#2E2E32"/>
</g>
<path d="M13.9161 77.8906C9 85.893 9 96.7865 9 118.574V568.426C9 590.214 9 601.107 13.9161 609.109C16.6668 613.587 20.441 617.352 24.9299 620.096C32.113 624.487 41.6198 624.946 59.2093 624.994C59.377 624.995 59.4608 624.995 59.527 624.986C59.5852 624.977 59.5821 624.978 59.6389 624.962C59.7033 624.945 59.8618 624.875 60.1788 624.736C60.46 624.613 60.7709 624.544 61.0978 624.544H63.3828C63.712 624.544 64.0249 624.614 64.3077 624.739C64.6248 624.879 64.7833 624.949 64.8477 624.967C64.9045 624.982 64.9012 624.982 64.9595 624.99C65.0257 625 65.108 625 65.2727 625C66.2977 625 67.3228 625 68.3479 625C68.5125 625 68.5949 625 68.661 624.99C68.7193 624.982 68.7161 624.982 68.7729 624.967C68.8373 624.949 68.9958 624.879 69.3128 624.739C69.5956 624.614 69.9086 624.544 70.2378 624.544H72.5228C72.852 624.544 73.1649 624.614 73.4477 624.739C73.7647 624.879 73.9233 624.949 73.9877 624.967C74.0445 624.982 74.0412 624.982 74.0995 624.99C74.1656 625 74.248 625 74.4127 625H77.4878C77.6525 625 77.7349 625 77.801 624.99C77.8593 624.982 77.856 624.982 77.9128 624.967C77.9772 624.949 78.1358 624.879 78.4528 624.739C78.7356 624.614 79.0485 624.544 79.3777 624.544H81.6627C81.9919 624.544 82.3049 624.614 82.5877 624.739C82.9047 624.879 83.0632 624.949 83.1276 624.967C83.1844 624.982 83.1812 624.982 83.2395 624.99C83.3056 625 83.388 625 83.5527 625H86.6278C86.7925 625 86.8748 625 86.941 624.99C86.9993 624.982 86.996 624.982 87.0528 624.967C87.1172 624.949 87.2757 624.879 87.5928 624.739C87.8755 624.614 88.1885 624.544 88.5177 624.544H90.8027C91.1319 624.544 91.4449 624.614 91.7276 624.739C92.0447 624.879 92.2032 624.949 92.2676 624.967C92.3244 624.982 92.3211 624.982 92.3794 624.99C92.4456 625 92.5279 625 92.6926 625H95.7678C95.9324 625 96.0148 625 96.0809 624.99C96.1392 624.982 96.136 624.982 96.1928 624.967C96.2572 624.949 96.4157 624.879 96.7327 624.739C97.0155 624.614 97.3285 624.544 97.6577 624.544H99.9427C100.272 624.544 100.585 624.614 100.868 624.739C101.185 624.879 101.343 624.949 101.408 624.967C101.464 624.982 101.461 624.982 101.519 624.99C101.586 625 101.668 625 101.833 625H127.758C127.922 625 128.005 625 128.071 624.99C128.129 624.982 128.126 624.982 128.183 624.967C128.247 624.949 128.406 624.879 128.723 624.739C129.005 624.614 129.318 624.544 129.648 624.544H157.981C158.311 624.544 158.624 624.614 158.906 624.739C159.223 624.879 159.382 624.949 159.446 624.967C159.503 624.982 159.5 624.982 159.558 624.99C159.624 625 159.707 625 159.871 625H185.796C185.961 625 186.043 625 186.11 624.99C186.168 624.982 186.165 624.982 186.221 624.967C186.286 624.949 186.444 624.879 186.761 624.739C187.044 624.614 187.357 624.544 187.686 624.544H189.971C190.301 624.544 190.613 624.614 190.896 624.739C191.213 624.879 191.372 624.949 191.436 624.967C191.493 624.982 191.49 624.982 191.548 624.99C191.614 625 191.697 625 191.861 625H194.936C195.101 625 195.183 625 195.25 624.99C195.308 624.982 195.305 624.982 195.361 624.967C195.426 624.949 195.584 624.879 195.901 624.739C196.184 624.614 196.497 624.544 196.826 624.544H199.111C199.441 624.544 199.753 624.614 200.036 624.739C200.353 624.879 200.512 624.949 200.576 624.967C200.633 624.982 200.63 624.982 200.688 624.99C200.754 625 200.837 625 201.001 625H204.076C204.241 625 204.323 625 204.39 624.99C204.448 624.982 204.445 624.982 204.501 624.967C204.566 624.949 204.724 624.879 205.041 624.739C205.324 624.614 205.637 624.544 205.966 624.544H208.251C208.58 624.544 208.893 624.614 209.176 624.739C209.493 624.879 209.652 624.949 209.716 624.967C209.773 624.982 209.77 624.982 209.828 624.99C209.894 625 209.976 625 210.141 625H213.216C213.381 625 213.463 625 213.53 624.99C213.588 624.982 213.585 624.982 213.641 624.967C213.706 624.949 213.864 624.879 214.181 624.739C214.464 624.614 214.777 624.544 215.106 624.544H217.391C217.72 624.544 218.033 624.614 218.316 624.739C218.633 624.879 218.792 624.949 218.856 624.967C218.913 624.982 218.91 624.982 218.968 624.99C219.034 625 219.116 625 219.281 625C220.306 625 221.331 625 222.356 625C222.521 625 222.603 625 222.669 624.99C222.728 624.982 222.725 624.982 222.781 624.967C222.846 624.949 223.004 624.879 223.321 624.739C223.604 624.614 223.917 624.544 224.246 624.544H226.531C226.858 624.544 227.169 624.613 227.45 624.736C227.766 624.875 227.925 624.944 227.989 624.962C228.046 624.977 228.043 624.977 228.101 624.985C228.167 624.995 228.251 624.994 228.419 624.994C245.863 624.942 255.319 624.468 262.471 620.096C266.96 617.352 270.734 613.587 273.484 609.109C278.401 601.107 278.401 590.214 278.401 568.426V118.574C278.401 96.7865 278.401 85.893 273.484 77.8906C270.734 73.4127 266.96 69.6479 262.471 66.9039C254.448 62 243.528 62 221.687 62H65.7135C43.8726 62 32.9521 62 24.9299 66.9039C20.441 69.6479 16.6668 73.4127 13.9161 77.8906Z" stroke="#171717" stroke-width="2" mask="url(#path-6-inside-1)"/>
<g style="mix-blend-mode:multiply">
<path d="M243.212 624.684V621.353H237.728V624.89C239.674 624.844 241.498 624.778 243.212 624.684Z" fill="url(#paint2_linear)"/>
<path d="M49.9013 624.896V621.353H44.4174V624.696C46.1319 624.787 47.9554 624.851 49.9013 624.896Z" fill="url(#paint3_linear)"/>
</g>
<g style="mix-blend-mode:multiply">
<path d="M44.4174 62.3041V65.6471H49.9013V62.1045C47.9554 62.1492 46.1319 62.213 44.4174 62.3041Z" fill="url(#paint4_linear)"/>
<path d="M237.728 62.1098V65.6471H243.212V62.3164C241.498 62.2223 239.674 62.1563 237.728 62.1098Z" fill="url(#paint5_linear)"/>
</g>
<g filter="url(#filter3_ddi)">
<path d="M11.742 118.984C11.742 98.092 11.742 87.6462 16.456 79.9726C19.0937 75.6788 22.7128 72.0687 27.0172 69.4375C34.7098 64.7351 45.1814 64.7351 66.1248 64.7351H221.276C242.219 64.7351 252.691 64.7351 260.383 69.4375C264.688 72.0687 268.307 75.6788 270.945 79.9726C275.659 87.6462 275.659 98.092 275.659 118.984V568.016C275.659 588.908 275.659 599.354 270.945 607.027C268.307 611.321 264.688 614.931 260.383 617.562C252.691 622.265 242.219 622.265 221.276 622.265H66.1248C45.1814 622.265 34.7098 622.265 27.0172 617.562C22.7128 614.931 19.0937 611.321 16.456 607.027C11.742 599.354 11.742 588.908 11.742 568.016V118.984Z" fill="#27262D"/>
<path d="M16.03 79.7109C13.6165 83.6396 12.4262 88.2551 11.8335 94.4739C11.242 100.68 11.242 108.534 11.242 118.956V118.984V568.016V568.044C11.242 578.466 11.242 586.32 11.8335 592.526C12.4262 598.745 13.6165 603.36 16.03 607.289C18.7091 611.65 22.3848 615.317 26.7564 617.989C30.6944 620.396 35.3209 621.583 41.5547 622.175C47.7755 622.765 55.6481 622.765 66.0956 622.765H66.1248H221.276H221.305C231.752 622.765 239.625 622.765 245.846 622.175C252.08 621.583 256.706 620.396 260.644 617.989C265.016 615.317 268.691 611.65 271.371 607.289C273.784 603.36 274.974 598.745 275.567 592.526C276.159 586.32 276.159 578.466 276.159 568.043V568.016V118.984V118.956C276.159 108.534 276.159 100.68 275.567 94.4739C274.974 88.2551 273.784 83.6396 271.371 79.7109C268.691 75.3498 265.016 71.6832 260.644 69.0109C256.706 66.6037 252.08 65.4164 245.846 64.8251C239.625 64.2351 231.752 64.2351 221.304 64.2351H221.276H66.1248H66.0969C55.6488 64.2351 47.7757 64.2351 41.5547 64.8251C35.3209 65.4164 30.6944 66.6037 26.7564 69.0109C22.3848 71.6832 18.7091 75.3498 16.03 79.7109Z" stroke="white" stroke-opacity="0.42" style="mix-blend-mode:screen"/>
</g>
<g style="mix-blend-mode:color-dodge">
<path d="M255.76 617.253C257.143 616.76 258.413 616.161 259.605 615.432C263.356 613.139 266.51 609.993 268.809 606.251C272.917 599.564 272.917 590.461 272.917 572.256V114.744C272.917 96.5388 272.917 87.436 268.809 80.749C266.51 77.0073 263.356 73.8613 259.605 71.5684C258.413 70.8393 257.143 70.24 255.76 69.7473C259.193 71.9938 262.09 74.9713 264.239 78.4696C268.347 85.1566 268.347 94.2594 268.347 112.465V574.535C268.347 592.741 268.347 601.844 264.239 608.531C262.09 612.029 259.193 615.006 255.76 617.253Z" fill="url(#paint6_linear)"/>
</g>
<g style="mix-blend-mode:color-dodge">
<path d="M31.6214 617.253C30.2378 616.76 28.9685 616.161 27.7759 615.432C24.0249 613.139 20.8712 609.993 18.5725 606.251C14.4646 599.564 14.4646 590.461 14.4646 572.256V114.744C14.4646 96.5388 14.4646 87.436 18.5725 80.749C20.8712 77.0073 24.0249 73.8613 27.7759 71.5684C28.9685 70.8393 30.2377 70.24 31.6214 69.7473C28.1881 71.9938 25.2916 74.9713 23.1425 78.4696C19.0346 85.1566 19.0346 94.2594 19.0346 112.465V574.535C19.0346 592.741 19.0346 601.844 23.1425 608.531C25.2916 612.029 28.1881 615.006 31.6214 617.253Z" fill="url(#paint7_linear)"/>
</g>
<g filter="url(#filter4_d)">
<path d="M20 95C20 85.0589 28.0589 77 38 77H250C259.941 77 268 85.0589 268 95V585C268 594.941 259.941 603 250 603H38C28.0589 603 20 594.941 20 585V95Z" fill="#F7F9FF"/>
</g>
<path d="M112.967 602.662C112.967 596.998 117.571 592.405 123.25 592.405H164.379C170.058 592.405 174.662 596.998 174.662 602.662C174.662 608.327 170.058 612.919 164.379 612.919H123.25C117.571 612.919 112.967 608.327 112.967 602.662Z" fill="black" style="mix-blend-mode:multiply"/>
<path fill-rule="evenodd" clip-rule="evenodd" d="M164.379 593.545H123.25C118.202 593.545 114.11 597.627 114.11 602.662C114.11 607.698 118.202 611.78 123.25 611.78H164.379C169.427 611.78 173.519 607.698 173.519 602.662C173.519 597.627 169.427 593.545 164.379 593.545ZM123.25 592.405C117.571 592.405 112.967 596.998 112.967 602.662C112.967 608.327 117.571 612.919 123.25 612.919H164.379C170.058 612.919 174.662 608.327 174.662 602.662C174.662 596.998 170.058 592.405 164.379 592.405H123.25Z" fill="url(#paint8_linear)"/>
<path fill-rule="evenodd" clip-rule="evenodd" d="M164.379 593.545H123.25C118.202 593.545 114.11 597.627 114.11 602.662C114.11 607.698 118.202 611.78 123.25 611.78H164.379C169.427 611.78 173.519 607.698 173.519 602.662C173.519 597.627 169.427 593.545 164.379 593.545ZM123.25 592.405C117.571 592.405 112.967 596.998 112.967 602.662C112.967 608.327 117.571 612.919 123.25 612.919H164.379C170.058 612.919 174.662 608.327 174.662 602.662C174.662 596.998 170.058 592.405 164.379 592.405H123.25Z" fill="url(#paint9_angular)" style="mix-blend-mode:overlay"/>
<path fill-rule="evenodd" clip-rule="evenodd" d="M123.25 593.089H164.379C169.68 593.089 173.976 597.375 173.976 602.662C173.976 607.95 169.68 612.236 164.379 612.236H123.25C117.949 612.236 113.653 607.95 113.653 602.662C113.653 597.375 117.949 593.089 123.25 593.089ZM123.25 593.317C118.076 593.317 113.881 597.501 113.881 602.662C113.881 607.824 118.076 612.008 123.25 612.008H164.379C169.553 612.008 173.748 607.824 173.748 602.662C173.748 597.501 169.553 593.317 164.379 593.317H123.25Z" fill="white" fill-opacity="0.08"/>
<path d="M113.881 602.662C113.881 597.501 118.076 593.317 123.25 593.317H164.379C169.554 593.317 173.748 597.501 173.748 602.662C173.748 607.824 169.554 612.008 164.379 612.008H123.25C118.076 612.008 113.881 607.824 113.881 602.662Z" fill="#17161A" fill-opacity="0.6"/>
<path d="M87.2422 223.514L90.0859 212.207H92.6152L88.3086 227H86.2578L82.6621 215.789L79.1621 227H77.1113L72.8184 212.207H75.334L78.2461 223.281L81.6914 212.207H83.7285L87.2422 223.514ZM101.338 227.273C99.3327 227.273 97.7012 226.617 96.4434 225.305C95.1855 223.983 94.5566 222.219 94.5566 220.014V219.549C94.5566 218.081 94.8346 216.773 95.3906 215.625C95.9557 214.467 96.7396 213.565 97.7422 212.918C98.7539 212.262 99.8477 211.934 101.023 211.934C102.947 211.934 104.441 212.567 105.508 213.834C106.574 215.101 107.107 216.915 107.107 219.275V220.328H97.0859C97.1224 221.786 97.5462 222.967 98.3574 223.869C99.1777 224.762 100.217 225.209 101.475 225.209C102.368 225.209 103.124 225.027 103.744 224.662C104.364 224.298 104.906 223.814 105.371 223.213L106.916 224.416C105.676 226.321 103.817 227.273 101.338 227.273ZM101.023 214.012C100.003 214.012 99.1458 214.385 98.4531 215.133C97.7604 215.871 97.332 216.91 97.168 218.25H104.578V218.059C104.505 216.773 104.159 215.78 103.539 215.078C102.919 214.367 102.081 214.012 101.023 214.012ZM112.795 227H110.266V206H112.795V227ZM122.789 225.209C123.691 225.209 124.48 224.936 125.154 224.389C125.829 223.842 126.202 223.158 126.275 222.338H128.668C128.622 223.186 128.331 223.992 127.793 224.758C127.255 225.523 126.535 226.134 125.633 226.59C124.74 227.046 123.792 227.273 122.789 227.273C120.775 227.273 119.171 226.604 117.977 225.264C116.792 223.915 116.199 222.074 116.199 219.74V219.316C116.199 217.876 116.464 216.596 116.992 215.475C117.521 214.354 118.277 213.483 119.262 212.863C120.255 212.243 121.426 211.934 122.775 211.934C124.434 211.934 125.811 212.43 126.904 213.424C128.007 214.417 128.595 215.707 128.668 217.293H126.275C126.202 216.336 125.838 215.552 125.182 214.941C124.535 214.322 123.732 214.012 122.775 214.012C121.49 214.012 120.492 214.477 119.781 215.406C119.079 216.327 118.729 217.662 118.729 219.412V219.891C118.729 221.595 119.079 222.908 119.781 223.828C120.483 224.749 121.486 225.209 122.789 225.209ZM130.842 219.467C130.842 218.018 131.124 216.714 131.689 215.557C132.264 214.399 133.057 213.506 134.068 212.877C135.089 212.248 136.251 211.934 137.555 211.934C139.569 211.934 141.196 212.631 142.436 214.025C143.684 215.42 144.309 217.275 144.309 219.59V219.768C144.309 221.208 144.031 222.502 143.475 223.65C142.928 224.79 142.139 225.678 141.109 226.316C140.089 226.954 138.913 227.273 137.582 227.273C135.577 227.273 133.95 226.576 132.701 225.182C131.462 223.787 130.842 221.941 130.842 219.645V219.467ZM133.385 219.768C133.385 221.408 133.763 222.725 134.52 223.719C135.285 224.712 136.306 225.209 137.582 225.209C138.867 225.209 139.888 224.708 140.645 223.705C141.401 222.693 141.779 221.281 141.779 219.467C141.779 217.844 141.392 216.532 140.617 215.529C139.852 214.518 138.831 214.012 137.555 214.012C136.306 214.012 135.299 214.508 134.533 215.502C133.768 216.495 133.385 217.917 133.385 219.768ZM149.859 212.207L149.928 213.848C151.012 212.572 152.475 211.934 154.316 211.934C156.385 211.934 157.794 212.727 158.541 214.312C159.033 213.602 159.671 213.027 160.455 212.59C161.248 212.152 162.182 211.934 163.258 211.934C166.503 211.934 168.152 213.652 168.207 217.088V227H165.678V217.238C165.678 216.181 165.436 215.393 164.953 214.873C164.47 214.344 163.659 214.08 162.52 214.08C161.581 214.08 160.801 214.363 160.182 214.928C159.562 215.484 159.202 216.236 159.102 217.184V227H156.559V217.307C156.559 215.156 155.506 214.08 153.4 214.08C151.742 214.08 150.607 214.786 149.996 216.199V227H147.467V212.207H149.859ZM178.174 227.273C176.169 227.273 174.537 226.617 173.279 225.305C172.021 223.983 171.393 222.219 171.393 220.014V219.549C171.393 218.081 171.671 216.773 172.227 215.625C172.792 214.467 173.576 213.565 174.578 212.918C175.59 212.262 176.684 211.934 177.859 211.934C179.783 211.934 181.277 212.567 182.344 213.834C183.41 215.101 183.943 216.915 183.943 219.275V220.328H173.922C173.958 221.786 174.382 222.967 175.193 223.869C176.014 224.762 177.053 225.209 178.311 225.209C179.204 225.209 179.96 225.027 180.58 224.662C181.2 224.298 181.742 223.814 182.207 223.213L183.752 224.416C182.512 226.321 180.653 227.273 178.174 227.273ZM177.859 214.012C176.839 214.012 175.982 214.385 175.289 215.133C174.596 215.871 174.168 216.91 174.004 218.25H181.414V218.059C181.341 216.773 180.995 215.78 180.375 215.078C179.755 214.367 178.917 214.012 177.859 214.012ZM197.26 208.625V212.207H200.021V214.162H197.26V223.336C197.26 223.928 197.383 224.375 197.629 224.676C197.875 224.967 198.294 225.113 198.887 225.113C199.178 225.113 199.579 225.059 200.09 224.949V227C199.424 227.182 198.777 227.273 198.148 227.273C197.018 227.273 196.166 226.932 195.592 226.248C195.018 225.564 194.73 224.594 194.73 223.336V214.162H192.037V212.207H194.73V208.625H197.26ZM202.045 219.467C202.045 218.018 202.327 216.714 202.893 215.557C203.467 214.399 204.26 213.506 205.271 212.877C206.292 212.248 207.454 211.934 208.758 211.934C210.772 211.934 212.399 212.631 213.639 214.025C214.887 215.42 215.512 217.275 215.512 219.59V219.768C215.512 221.208 215.234 222.502 214.678 223.65C214.131 224.79 213.342 225.678 212.312 226.316C211.292 226.954 210.116 227.273 208.785 227.273C206.78 227.273 205.153 226.576 203.904 225.182C202.665 223.787 202.045 221.941 202.045 219.645V219.467ZM204.588 219.768C204.588 221.408 204.966 222.725 205.723 223.719C206.488 224.712 207.509 225.209 208.785 225.209C210.07 225.209 211.091 224.708 211.848 223.705C212.604 222.693 212.982 221.281 212.982 219.467C212.982 217.844 212.595 216.532 211.82 215.529C211.055 214.518 210.034 214.012 208.758 214.012C207.509 214.012 206.502 214.508 205.736 215.502C204.971 216.495 204.588 217.917 204.588 219.768ZM118.688 243.416H112.59V260H108.488V243.416H102.473V240.094H118.688V243.416ZM128.736 258.496C127.761 259.681 126.412 260.273 124.689 260.273C123.104 260.273 121.891 259.818 121.053 258.906C120.223 257.995 119.799 256.66 119.781 254.9V245.207H123.732V254.764C123.732 256.304 124.434 257.074 125.838 257.074C127.178 257.074 128.098 256.609 128.6 255.68V245.207H132.564V260H128.846L128.736 258.496ZM143.857 248.912C143.32 248.839 142.846 248.803 142.436 248.803C140.941 248.803 139.961 249.309 139.496 250.32V260H135.545V245.207H139.277L139.387 246.971C140.18 245.613 141.278 244.934 142.682 244.934C143.119 244.934 143.529 244.993 143.912 245.111L143.857 248.912ZM154.084 248.912C153.546 248.839 153.072 248.803 152.662 248.803C151.167 248.803 150.188 249.309 149.723 250.32V260H145.771V245.207H149.504L149.613 246.971C150.406 245.613 151.505 244.934 152.908 244.934C153.346 244.934 153.756 244.993 154.139 245.111L154.084 248.912ZM159.635 245.207L159.758 246.916C160.815 245.594 162.232 244.934 164.01 244.934C165.577 244.934 166.744 245.394 167.51 246.314C168.275 247.235 168.667 248.611 168.686 250.443V260H164.734V250.539C164.734 249.701 164.552 249.094 164.188 248.721C163.823 248.338 163.217 248.146 162.369 248.146C161.257 248.146 160.423 248.62 159.867 249.568V260H155.916V245.207H159.635ZM175.863 260H171.898V245.207H175.863V260ZM171.666 241.379C171.666 240.786 171.862 240.299 172.254 239.916C172.655 239.533 173.197 239.342 173.881 239.342C174.555 239.342 175.093 239.533 175.494 239.916C175.895 240.299 176.096 240.786 176.096 241.379C176.096 241.98 175.891 242.473 175.48 242.855C175.079 243.238 174.546 243.43 173.881 243.43C173.215 243.43 172.678 243.238 172.268 242.855C171.867 242.473 171.666 241.98 171.666 241.379ZM183.861 241.57V245.207H186.391V248.105H183.861V255.488C183.861 256.035 183.966 256.427 184.176 256.664C184.385 256.901 184.786 257.02 185.379 257.02C185.816 257.02 186.204 256.988 186.541 256.924V259.918C185.766 260.155 184.969 260.273 184.148 260.273C181.378 260.273 179.965 258.874 179.91 256.076V248.105H177.75V245.207H179.91V241.57H183.861Z" fill="#2E2E2E"/>
<path d="M108.625 76.5879C111.139 76.5879 113.653 78.6393 114.109 82.0583C115.171 90.0056 120.248 94.8227 127.819 94.8227L160.691 94.8227C168.456 94.8227 173.662 90.0056 174.751 82.0583C175.219 78.6393 177.797 76.5879 180.374 76.5879H108.625Z" fill="#17161A"/>
<path d="M135.36 83.198C135.36 86.4711 132.7 89.1244 129.419 89.1244C126.138 89.1244 123.478 86.4711 123.478 83.198C123.478 79.925 126.138 77.2717 129.419 77.2717C132.7 77.2717 135.36 79.925 135.36 83.198Z" fill="#17171A" fill-opacity="0.01"/>
<path fill-rule="evenodd" clip-rule="evenodd" d="M129.419 88.8964C132.574 88.8964 135.132 86.3452 135.132 83.198C135.132 80.0509 132.574 77.4997 129.419 77.4997C126.264 77.4997 123.707 80.0509 123.707 83.198C123.707 86.3452 126.264 88.8964 129.419 88.8964ZM129.419 89.1244C132.7 89.1244 135.36 86.4711 135.36 83.198C135.36 79.925 132.7 77.2717 129.419 77.2717C126.138 77.2717 123.478 79.925 123.478 83.198C123.478 86.4711 126.138 89.1244 129.419 89.1244Z" fill="black" fill-opacity="0.6"/>
<mask id="path-22-outside-2" maskUnits="userSpaceOnUse" x="123.392" y="77.1833" width="12" height="12" fill="black">
<rect fill="white" x="123.392" y="77.1833" width="12" height="12"/>
<path d="M126.511 86.0991C126.332 85.921 126.043 85.921 125.865 86.0991C125.686 86.2771 125.686 86.5657 125.865 86.7438C126.043 86.9218 126.332 86.9218 126.511 86.7438C126.689 86.5657 126.689 86.2771 126.511 86.0991Z"/>
<path d="M127.845 79.4074C128.078 79.3111 128.189 79.0444 128.092 78.8118C127.996 78.5792 127.728 78.4687 127.495 78.5651C127.262 78.6614 127.151 78.9281 127.248 79.1607C127.345 79.3933 127.612 79.5037 127.845 79.4074Z"/>
<path d="M126.511 80.2968C126.689 80.1188 126.689 79.8301 126.511 79.6521C126.332 79.4741 126.043 79.4741 125.865 79.6521C125.686 79.8301 125.686 80.1188 125.865 80.2968C126.043 80.4748 126.332 80.4748 126.511 80.2968Z"/>
<path d="M132.974 80.2968C133.152 80.1188 133.152 79.8301 132.974 79.6521C132.795 79.4741 132.506 79.4741 132.327 79.6521C132.149 79.8301 132.149 80.1188 132.327 80.2968C132.506 80.4748 132.795 80.4748 132.974 80.2968Z"/>
<path d="M129.419 79.0951C129.671 79.0951 129.876 78.891 129.876 78.6392C129.876 78.3874 129.671 78.1833 129.419 78.1833C129.167 78.1833 128.962 78.3874 128.962 78.6392C128.962 78.891 129.167 79.0951 129.419 79.0951Z"/>
<path d="M130.508 85.992C130.635 86.2101 130.914 86.2848 131.133 86.1589C131.351 86.033 131.426 85.7542 131.3 85.5362C131.174 85.3181 130.894 85.2434 130.676 85.3693C130.457 85.4952 130.382 85.774 130.508 85.992Z"/>
<path d="M129.419 88.2125C129.671 88.2125 129.876 88.0084 129.876 87.7566C129.876 87.5049 129.671 87.3008 129.419 87.3008C129.167 87.3008 128.962 87.5049 128.962 87.7566C128.962 88.0084 129.167 88.2125 129.419 88.2125Z"/>
<path d="M124.392 83.1979C124.392 83.4497 124.597 83.6538 124.849 83.6538C125.101 83.6538 125.306 83.4497 125.306 83.1979C125.306 82.9462 125.101 82.7421 124.849 82.7421C124.597 82.7421 124.392 82.9462 124.392 83.1979Z"/>
<path d="M133.532 83.1979C133.532 83.4497 133.737 83.6538 133.989 83.6538C134.241 83.6538 134.446 83.4497 134.446 83.1979C134.446 82.9462 134.241 82.7421 133.989 82.7421C133.737 82.7421 133.532 82.9462 133.532 83.1979Z"/>
<path d="M130.746 78.8118C130.649 79.0444 130.76 79.3111 130.993 79.4074C131.226 79.5037 131.494 79.3933 131.59 79.1607C131.687 78.9281 131.576 78.6614 131.343 78.5651C131.11 78.4687 130.842 78.5792 130.746 78.8118Z"/>
<path d="M127.248 87.2352C127.151 87.4678 127.262 87.7344 127.495 87.8308C127.728 87.9271 127.996 87.8167 128.092 87.5841C128.189 87.3515 128.078 87.0848 127.845 86.9884C127.612 86.8921 127.345 87.0026 127.248 87.2352Z"/>
<path d="M124.775 81.2789C124.678 81.5115 124.789 81.7782 125.022 81.8746C125.255 81.9709 125.523 81.8604 125.619 81.6278C125.716 81.3952 125.605 81.1286 125.372 81.0322C125.139 80.9359 124.871 81.0463 124.775 81.2789Z"/>
<path d="M133.219 84.768C133.122 85.0006 133.233 85.2673 133.466 85.3636C133.699 85.46 133.967 85.3495 134.063 85.1169C134.16 84.8843 134.049 84.6176 133.816 84.5213C133.583 84.4249 133.316 84.5354 133.219 84.768Z"/>
<path d="M130.993 86.9884C130.76 87.0848 130.649 87.3515 130.746 87.5841C130.842 87.8167 131.11 87.9271 131.343 87.8308C131.576 87.7344 131.687 87.4678 131.59 87.2352C131.494 87.0026 131.226 86.8921 130.993 86.9884Z"/>
<path d="M124.775 85.1169C124.871 85.3495 125.139 85.46 125.372 85.3636C125.605 85.2673 125.716 85.0006 125.619 84.768C125.523 84.5354 125.255 84.4249 125.022 84.5213C124.789 84.6176 124.678 84.8843 124.775 85.1169Z"/>
<path d="M133.466 81.0322C133.233 81.1286 133.122 81.3952 133.219 81.6278C133.316 81.8604 133.583 81.9709 133.816 81.8746C134.049 81.7782 134.16 81.5115 134.063 81.2789C133.967 81.0463 133.699 80.9359 133.466 81.0322Z"/>
<path d="M132.327 86.7438C132.506 86.9218 132.795 86.9218 132.974 86.7438C133.152 86.5657 133.152 86.2771 132.974 86.0991C132.795 85.921 132.506 85.921 132.327 86.0991C132.149 86.2771 132.149 86.5657 132.327 86.7438Z"/>
<path d="M129.419 80.6906C129.671 80.6906 129.876 80.4865 129.876 80.2348C129.876 79.983 129.671 79.7789 129.419 79.7789C129.167 79.7789 128.962 79.983 128.962 80.2348C128.962 80.4865 129.167 80.6906 129.419 80.6906Z"/>
<path d="M129.419 86.617C129.671 86.617 129.876 86.4129 129.876 86.1611C129.876 85.9093 129.671 85.7052 129.419 85.7052C129.167 85.7052 128.962 85.9093 128.962 86.1611C128.962 86.4129 129.167 86.617 129.419 86.617Z"/>
<path d="M130.676 81.0265C130.894 81.1524 131.174 81.0777 131.3 80.8597C131.426 80.6416 131.351 80.3628 131.133 80.237C130.914 80.1111 130.635 80.1858 130.509 80.4038C130.382 80.6219 130.457 80.9007 130.676 81.0265Z"/>
<path d="M127.705 86.1589C127.924 86.2848 128.203 86.2101 128.33 85.992C128.456 85.774 128.381 85.4952 128.162 85.3693C127.944 85.2434 127.664 85.3181 127.538 85.5362C127.412 85.7542 127.487 86.033 127.705 86.1589Z"/>
<path d="M131.596 81.9443C131.722 82.1623 132.001 82.237 132.22 82.1111C132.439 81.9853 132.513 81.7064 132.387 81.4884C132.261 81.2704 131.982 81.1957 131.763 81.3215C131.544 81.4474 131.47 81.7262 131.596 81.9443Z"/>
<path d="M126.451 84.9074C126.577 85.1255 126.856 85.2002 127.075 85.0743C127.294 84.9484 127.368 84.6696 127.242 84.4516C127.116 84.2335 126.837 84.1588 126.618 84.2847C126.399 84.4106 126.325 84.6894 126.451 84.9074Z"/>
<path d="M125.991 83.1979C125.991 83.4497 126.196 83.6538 126.448 83.6538C126.701 83.6538 126.905 83.4497 126.905 83.1979C126.905 82.9462 126.701 82.7421 126.448 82.7421C126.196 82.7421 125.991 82.9462 125.991 83.1979Z"/>
<path d="M131.932 83.1979C131.932 83.4497 132.137 83.6538 132.389 83.6538C132.642 83.6538 132.846 83.4497 132.846 83.1979C132.846 82.9462 132.642 82.7421 132.389 82.7421C132.137 82.7421 131.932 82.9462 131.932 83.1979Z"/>
<path d="M126.451 81.4884C126.325 81.7064 126.399 81.9853 126.618 82.1111C126.837 82.237 127.116 82.1623 127.242 81.9443C127.368 81.7262 127.294 81.4474 127.075 81.3215C126.856 81.1957 126.577 81.2704 126.451 81.4884Z"/>
<path d="M131.596 84.4516C131.47 84.6696 131.544 84.9484 131.763 85.0743C131.982 85.2002 132.261 85.1255 132.387 84.9074C132.513 84.6894 132.439 84.4106 132.22 84.2847C132.001 84.1588 131.722 84.2335 131.596 84.4516Z"/>
<path d="M127.705 80.237C127.487 80.3628 127.412 80.6416 127.538 80.8597C127.664 81.0777 127.944 81.1524 128.162 81.0265C128.381 80.9007 128.456 80.6219 128.33 80.4038C128.203 80.1858 127.924 80.1111 127.705 80.237Z"/>
<path d="M129.419 82.2862C129.672 82.2862 129.876 82.0821 129.876 81.8303C129.876 81.5785 129.672 81.3744 129.419 81.3744C129.167 81.3744 128.962 81.5785 128.962 81.8303C128.962 82.0821 129.167 82.2862 129.419 82.2862Z"/>
<path d="M129.419 85.0214C129.672 85.0214 129.876 84.8173 129.876 84.5655C129.876 84.3138 129.672 84.1097 129.419 84.1097C129.167 84.1097 128.962 84.3138 128.962 84.5655C128.962 84.8173 129.167 85.0214 129.419 85.0214Z"/>
<path d="M130.211 82.7421C130.337 82.9601 130.616 83.0348 130.835 82.9089C131.053 82.783 131.128 82.5042 131.002 82.2862C130.876 82.0681 130.596 81.9934 130.378 82.1193C130.159 82.2452 130.084 82.524 130.211 82.7421Z"/>
<path d="M127.836 84.1097C127.962 84.3277 128.242 84.4024 128.46 84.2765C128.679 84.1506 128.754 83.8718 128.628 83.6538C128.501 83.4358 128.222 83.361 128.003 83.4869C127.785 83.6128 127.71 83.8916 127.836 84.1097Z"/>
<path d="M127.836 82.2862C127.71 82.5042 127.785 82.783 128.003 82.9089C128.222 83.0348 128.501 82.9601 128.628 82.7421C128.754 82.524 128.679 82.2452 128.46 82.1193C128.242 81.9934 127.962 82.0681 127.836 82.2862Z"/>
<path d="M130.211 83.6538C130.084 83.8718 130.159 84.1506 130.378 84.2765C130.596 84.4024 130.876 84.3277 131.002 84.1097C131.128 83.8916 131.053 83.6128 130.835 83.4869C130.616 83.361 130.337 83.4358 130.211 83.6538Z"/>
<path d="M129.419 83.6538C129.671 83.6538 129.876 83.4497 129.876 83.1979C129.876 82.9462 129.671 82.7421 129.419 82.7421C129.167 82.7421 128.962 82.9462 128.962 83.1979C128.962 83.4497 129.167 83.6538 129.419 83.6538Z"/>
</mask>
<g filter="url(#filter5_i)">
<path d="M126.511 86.0991C126.332 85.921 126.043 85.921 125.865 86.0991C125.686 86.2771 125.686 86.5657 125.865 86.7438C126.043 86.9218 126.332 86.9218 126.511 86.7438C126.689 86.5657 126.689 86.2771 126.511 86.0991Z" fill="#232228"/>
<path d="M127.845 79.4074C128.078 79.3111 128.189 79.0444 128.092 78.8118C127.996 78.5792 127.728 78.4687 127.495 78.5651C127.262 78.6614 127.151 78.9281 127.248 79.1607C127.345 79.3933 127.612 79.5037 127.845 79.4074Z" fill="#232228"/>
<path d="M126.511 80.2968C126.689 80.1188 126.689 79.8301 126.511 79.6521C126.332 79.4741 126.043 79.4741 125.865 79.6521C125.686 79.8301 125.686 80.1188 125.865 80.2968C126.043 80.4748 126.332 80.4748 126.511 80.2968Z" fill="#232228"/>
<path d="M132.974 80.2968C133.152 80.1188 133.152 79.8301 132.974 79.6521C132.795 79.4741 132.506 79.4741 132.327 79.6521C132.149 79.8301 132.149 80.1188 132.327 80.2968C132.506 80.4748 132.795 80.4748 132.974 80.2968Z" fill="#232228"/>
<path d="M129.419 79.0951C129.671 79.0951 129.876 78.891 129.876 78.6392C129.876 78.3874 129.671 78.1833 129.419 78.1833C129.167 78.1833 128.962 78.3874 128.962 78.6392C128.962 78.891 129.167 79.0951 129.419 79.0951Z" fill="#232228"/>
<path d="M130.508 85.992C130.635 86.2101 130.914 86.2848 131.133 86.1589C131.351 86.033 131.426 85.7542 131.3 85.5362C131.174 85.3181 130.894 85.2434 130.676 85.3693C130.457 85.4952 130.382 85.774 130.508 85.992Z" fill="#232228"/>
<path d="M129.419 88.2125C129.671 88.2125 129.876 88.0084 129.876 87.7566C129.876 87.5049 129.671 87.3008 129.419 87.3008C129.167 87.3008 128.962 87.5049 128.962 87.7566C128.962 88.0084 129.167 88.2125 129.419 88.2125Z" fill="#232228"/>
<path d="M124.392 83.1979C124.392 83.4497 124.597 83.6538 124.849 83.6538C125.101 83.6538 125.306 83.4497 125.306 83.1979C125.306 82.9462 125.101 82.7421 124.849 82.7421C124.597 82.7421 124.392 82.9462 124.392 83.1979Z" fill="#232228"/>
<path d="M133.532 83.1979C133.532 83.4497 133.737 83.6538 133.989 83.6538C134.241 83.6538 134.446 83.4497 134.446 83.1979C134.446 82.9462 134.241 82.7421 133.989 82.7421C133.737 82.7421 133.532 82.9462 133.532 83.1979Z" fill="#232228"/>
<path d="M130.746 78.8118C130.649 79.0444 130.76 79.3111 130.993 79.4074C131.226 79.5037 131.494 79.3933 131.59 79.1607C131.687 78.9281 131.576 78.6614 131.343 78.5651C131.11 78.4687 130.842 78.5792 130.746 78.8118Z" fill="#232228"/>
<path d="M127.248 87.2352C127.151 87.4678 127.262 87.7344 127.495 87.8308C127.728 87.9271 127.996 87.8167 128.092 87.5841C128.189 87.3515 128.078 87.0848 127.845 86.9884C127.612 86.8921 127.345 87.0026 127.248 87.2352Z" fill="#232228"/>
<path d="M124.775 81.2789C124.678 81.5115 124.789 81.7782 125.022 81.8746C125.255 81.9709 125.523 81.8604 125.619 81.6278C125.716 81.3952 125.605 81.1286 125.372 81.0322C125.139 80.9359 124.871 81.0463 124.775 81.2789Z" fill="#232228"/>
<path d="M133.219 84.768C133.122 85.0006 133.233 85.2673 133.466 85.3636C133.699 85.46 133.967 85.3495 134.063 85.1169C134.16 84.8843 134.049 84.6176 133.816 84.5213C133.583 84.4249 133.316 84.5354 133.219 84.768Z" fill="#232228"/>
<path d="M130.993 86.9884C130.76 87.0848 130.649 87.3515 130.746 87.5841C130.842 87.8167 131.11 87.9271 131.343 87.8308C131.576 87.7344 131.687 87.4678 131.59 87.2352C131.494 87.0026 131.226 86.8921 130.993 86.9884Z" fill="#232228"/>
<path d="M124.775 85.1169C124.871 85.3495 125.139 85.46 125.372 85.3636C125.605 85.2673 125.716 85.0006 125.619 84.768C125.523 84.5354 125.255 84.4249 125.022 84.5213C124.789 84.6176 124.678 84.8843 124.775 85.1169Z" fill="#232228"/>
<path d="M133.466 81.0322C133.233 81.1286 133.122 81.3952 133.219 81.6278C133.316 81.8604 133.583 81.9709 133.816 81.8746C134.049 81.7782 134.16 81.5115 134.063 81.2789C133.967 81.0463 133.699 80.9359 133.466 81.0322Z" fill="#232228"/>
<path d="M132.327 86.7438C132.506 86.9218 132.795 86.9218 132.974 86.7438C133.152 86.5657 133.152 86.2771 132.974 86.0991C132.795 85.921 132.506 85.921 132.327 86.0991C132.149 86.2771 132.149 86.5657 132.327 86.7438Z" fill="#232228"/>
<path d="M129.419 80.6906C129.671 80.6906 129.876 80.4865 129.876 80.2348C129.876 79.983 129.671 79.7789 129.419 79.7789C129.167 79.7789 128.962 79.983 128.962 80.2348C128.962 80.4865 129.167 80.6906 129.419 80.6906Z" fill="#232228"/>
<path d="M129.419 86.617C129.671 86.617 129.876 86.4129 129.876 86.1611C129.876 85.9093 129.671 85.7052 129.419 85.7052C129.167 85.7052 128.962 85.9093 128.962 86.1611C128.962 86.4129 129.167 86.617 129.419 86.617Z" fill="#232228"/>
<path d="M130.676 81.0265C130.894 81.1524 131.174 81.0777 131.3 80.8597C131.426 80.6416 131.351 80.3628 131.133 80.237C130.914 80.1111 130.635 80.1858 130.509 80.4038C130.382 80.6219 130.457 80.9007 130.676 81.0265Z" fill="#232228"/>
<path d="M127.705 86.1589C127.924 86.2848 128.203 86.2101 128.33 85.992C128.456 85.774 128.381 85.4952 128.162 85.3693C127.944 85.2434 127.664 85.3181 127.538 85.5362C127.412 85.7542 127.487 86.033 127.705 86.1589Z" fill="#232228"/>
<path d="M131.596 81.9443C131.722 82.1623 132.001 82.237 132.22 82.1111C132.439 81.9853 132.513 81.7064 132.387 81.4884C132.261 81.2704 131.982 81.1957 131.763 81.3215C131.544 81.4474 131.47 81.7262 131.596 81.9443Z" fill="#232228"/>
<path d="M126.451 84.9074C126.577 85.1255 126.856 85.2002 127.075 85.0743C127.294 84.9484 127.368 84.6696 127.242 84.4516C127.116 84.2335 126.837 84.1588 126.618 84.2847C126.399 84.4106 126.325 84.6894 126.451 84.9074Z" fill="#232228"/>
<path d="M125.991 83.1979C125.991 83.4497 126.196 83.6538 126.448 83.6538C126.701 83.6538 126.905 83.4497 126.905 83.1979C126.905 82.9462 126.701 82.7421 126.448 82.7421C126.196 82.7421 125.991 82.9462 125.991 83.1979Z" fill="#232228"/>
<path d="M131.932 83.1979C131.932 83.4497 132.137 83.6538 132.389 83.6538C132.642 83.6538 132.846 83.4497 132.846 83.1979C132.846 82.9462 132.642 82.7421 132.389 82.7421C132.137 82.7421 131.932 82.9462 131.932 83.1979Z" fill="#232228"/>
<path d="M126.451 81.4884C126.325 81.7064 126.399 81.9853 126.618 82.1111C126.837 82.237 127.116 82.1623 127.242 81.9443C127.368 81.7262 127.294 81.4474 127.075 81.3215C126.856 81.1957 126.577 81.2704 126.451 81.4884Z" fill="#232228"/>
<path d="M131.596 84.4516C131.47 84.6696 131.544 84.9484 131.763 85.0743C131.982 85.2002 132.261 85.1255 132.387 84.9074C132.513 84.6894 132.439 84.4106 132.22 84.2847C132.001 84.1588 131.722 84.2335 131.596 84.4516Z" fill="#232228"/>
<path d="M127.705 80.237C127.487 80.3628 127.412 80.6416 127.538 80.8597C127.664 81.0777 127.944 81.1524 128.162 81.0265C128.381 80.9007 128.456 80.6219 128.33 80.4038C128.203 80.1858 127.924 80.1111 127.705 80.237Z" fill="#232228"/>
<path d="M129.419 82.2862C129.672 82.2862 129.876 82.0821 129.876 81.8303C129.876 81.5785 129.672 81.3744 129.419 81.3744C129.167 81.3744 128.962 81.5785 128.962 81.8303C128.962 82.0821 129.167 82.2862 129.419 82.2862Z" fill="#232228"/>
<path d="M129.419 85.0214C129.672 85.0214 129.876 84.8173 129.876 84.5655C129.876 84.3138 129.672 84.1097 129.419 84.1097C129.167 84.1097 128.962 84.3138 128.962 84.5655C128.962 84.8173 129.167 85.0214 129.419 85.0214Z" fill="#232228"/>
<path d="M130.211 82.7421C130.337 82.9601 130.616 83.0348 130.835 82.9089C131.053 82.783 131.128 82.5042 131.002 82.2862C130.876 82.0681 130.596 81.9934 130.378 82.1193C130.159 82.2452 130.084 82.524 130.211 82.7421Z" fill="#232228"/>
<path d="M127.836 84.1097C127.962 84.3277 128.242 84.4024 128.46 84.2765C128.679 84.1506 128.754 83.8718 128.628 83.6538C128.501 83.4358 128.222 83.361 128.003 83.4869C127.785 83.6128 127.71 83.8916 127.836 84.1097Z" fill="#232228"/>
<path d="M127.836 82.2862C127.71 82.5042 127.785 82.783 128.003 82.9089C128.222 83.0348 128.501 82.9601 128.628 82.7421C128.754 82.524 128.679 82.2452 128.46 82.1193C128.242 81.9934 127.962 82.0681 127.836 82.2862Z" fill="#232228"/>
<path d="M130.211 83.6538C130.084 83.8718 130.159 84.1506 130.378 84.2765C130.596 84.4024 130.876 84.3277 131.002 84.1097C131.128 83.8916 131.053 83.6128 130.835 83.4869C130.616 83.361 130.337 83.4358 130.211 83.6538Z" fill="#232228"/>
<path d="M129.419 83.6538C129.671 83.6538 129.876 83.4497 129.876 83.1979C129.876 82.9462 129.671 82.7421 129.419 82.7421C129.167 82.7421 128.962 82.9462 128.962 83.1979C128.962 83.4497 129.167 83.6538 129.419 83.6538Z" fill="#232228"/>
</g>
<path d="M126.511 86.0991C126.332 85.921 126.043 85.921 125.865 86.0991C125.686 86.2771 125.686 86.5657 125.865 86.7438C126.043 86.9218 126.332 86.9218 126.511 86.7438C126.689 86.5657 126.689 86.2771 126.511 86.0991Z" stroke="#1E1E1E" stroke-opacity="0.93" mask="url(#path-22-outside-2)"/>
<path d="M127.845 79.4074C128.078 79.3111 128.189 79.0444 128.092 78.8118C127.996 78.5792 127.728 78.4687 127.495 78.5651C127.262 78.6614 127.151 78.9281 127.248 79.1607C127.345 79.3933 127.612 79.5037 127.845 79.4074Z" stroke="#1E1E1E" stroke-opacity="0.93" mask="url(#path-22-outside-2)"/>
<path d="M126.511 80.2968C126.689 80.1188 126.689 79.8301 126.511 79.6521C126.332 79.4741 126.043 79.4741 125.865 79.6521C125.686 79.8301 125.686 80.1188 125.865 80.2968C126.043 80.4748 126.332 80.4748 126.511 80.2968Z" stroke="#1E1E1E" stroke-opacity="0.93" mask="url(#path-22-outside-2)"/>
<path d="M132.974 80.2968C133.152 80.1188 133.152 79.8301 132.974 79.6521C132.795 79.4741 132.506 79.4741 132.327 79.6521C132.149 79.8301 132.149 80.1188 132.327 80.2968C132.506 80.4748 132.795 80.4748 132.974 80.2968Z" stroke="#1E1E1E" stroke-opacity="0.93" mask="url(#path-22-outside-2)"/>
<path d="M129.419 79.0951C129.671 79.0951 129.876 78.891 129.876 78.6392C129.876 78.3874 129.671 78.1833 129.419 78.1833C129.167 78.1833 128.962 78.3874 128.962 78.6392C128.962 78.891 129.167 79.0951 129.419 79.0951Z" stroke="#1E1E1E" stroke-opacity="0.93" mask="url(#path-22-outside-2)"/>
<path d="M130.508 85.992C130.635 86.2101 130.914 86.2848 131.133 86.1589C131.351 86.033 131.426 85.7542 131.3 85.5362C131.174 85.3181 130.894 85.2434 130.676 85.3693C130.457 85.4952 130.382 85.774 130.508 85.992Z" stroke="#1E1E1E" stroke-opacity="0.93" mask="url(#path-22-outside-2)"/>
<path d="M129.419 88.2125C129.671 88.2125 129.876 88.0084 129.876 87.7566C129.876 87.5049 129.671 87.3008 129.419 87.3008C129.167 87.3008 128.962 87.5049 128.962 87.7566C128.962 88.0084 129.167 88.2125 129.419 88.2125Z" stroke="#1E1E1E" stroke-opacity="0.93" mask="url(#path-22-outside-2)"/>
<path d="M124.392 83.1979C124.392 83.4497 124.597 83.6538 124.849 83.6538C125.101 83.6538 125.306 83.4497 125.306 83.1979C125.306 82.9462 125.101 82.7421 124.849 82.7421C124.597 82.7421 124.392 82.9462 124.392 83.1979Z" stroke="#1E1E1E" stroke-opacity="0.93" mask="url(#path-22-outside-2)"/>
<path d="M133.532 83.1979C133.532 83.4497 133.737 83.6538 133.989 83.6538C134.241 83.6538 134.446 83.4497 134.446 83.1979C134.446 82.9462 134.241 82.7421 133.989 82.7421C133.737 82.7421 133.532 82.9462 133.532 83.1979Z" stroke="#1E1E1E" stroke-opacity="0.93" mask="url(#path-22-outside-2)"/>
<path d="M130.746 78.8118C130.649 79.0444 130.76 79.3111 130.993 79.4074C131.226 79.5037 131.494 79.3933 131.59 79.1607C131.687 78.9281 131.576 78.6614 131.343 78.5651C131.11 78.4687 130.842 78.5792 130.746 78.8118Z" stroke="#1E1E1E" stroke-opacity="0.93" mask="url(#path-22-outside-2)"/>
<path d="M127.248 87.2352C127.151 87.4678 127.262 87.7344 127.495 87.8308C127.728 87.9271 127.996 87.8167 128.092 87.5841C128.189 87.3515 128.078 87.0848 127.845 86.9884C127.612 86.8921 127.345 87.0026 127.248 87.2352Z" stroke="#1E1E1E" stroke-opacity="0.93" mask="url(#path-22-outside-2)"/>
<path d="M124.775 81.2789C124.678 81.5115 124.789 81.7782 125.022 81.8746C125.255 81.9709 125.523 81.8604 125.619 81.6278C125.716 81.3952 125.605 81.1286 125.372 81.0322C125.139 80.9359 124.871 81.0463 124.775 81.2789Z" stroke="#1E1E1E" stroke-opacity="0.93" mask="url(#path-22-outside-2)"/>
<path d="M133.219 84.768C133.122 85.0006 133.233 85.2673 133.466 85.3636C133.699 85.46 133.967 85.3495 134.063 85.1169C134.16 84.8843 134.049 84.6176 133.816 84.5213C133.583 84.4249 133.316 84.5354 133.219 84.768Z" stroke="#1E1E1E" stroke-opacity="0.93" mask="url(#path-22-outside-2)"/>
<path d="M130.993 86.9884C130.76 87.0848 130.649 87.3515 130.746 87.5841C130.842 87.8167 131.11 87.9271 131.343 87.8308C131.576 87.7344 131.687 87.4678 131.59 87.2352C131.494 87.0026 131.226 86.8921 130.993 86.9884Z" stroke="#1E1E1E" stroke-opacity="0.93" mask="url(#path-22-outside-2)"/>
<path d="M124.775 85.1169C124.871 85.3495 125.139 85.46 125.372 85.3636C125.605 85.2673 125.716 85.0006 125.619 84.768C125.523 84.5354 125.255 84.4249 125.022 84.5213C124.789 84.6176 124.678 84.8843 124.775 85.1169Z" stroke="#1E1E1E" stroke-opacity="0.93" mask="url(#path-22-outside-2)"/>
<path d="M133.466 81.0322C133.233 81.1286 133.122 81.3952 133.219 81.6278C133.316 81.8604 133.583 81.9709 133.816 81.8746C134.049 81.7782 134.16 81.5115 134.063 81.2789C133.967 81.0463 133.699 80.9359 133.466 81.0322Z" stroke="#1E1E1E" stroke-opacity="0.93" mask="url(#path-22-outside-2)"/>
<path d="M132.327 86.7438C132.506 86.9218 132.795 86.9218 132.974 86.7438C133.152 86.5657 133.152 86.2771 132.974 86.0991C132.795 85.921 132.506 85.921 132.327 86.0991C132.149 86.2771 132.149 86.5657 132.327 86.7438Z" stroke="#1E1E1E" stroke-opacity="0.93" mask="url(#path-22-outside-2)"/>
<path d="M129.419 80.6906C129.671 80.6906 129.876 80.4865 129.876 80.2348C129.876 79.983 129.671 79.7789 129.419 79.7789C129.167 79.7789 128.962 79.983 128.962 80.2348C128.962 80.4865 129.167 80.6906 129.419 80.6906Z" stroke="#1E1E1E" stroke-opacity="0.93" mask="url(#path-22-outside-2)"/>
<path d="M129.419 86.617C129.671 86.617 129.876 86.4129 129.876 86.1611C129.876 85.9093 129.671 85.7052 129.419 85.7052C129.167 85.7052 128.962 85.9093 128.962 86.1611C128.962 86.4129 129.167 86.617 129.419 86.617Z" stroke="#1E1E1E" stroke-opacity="0.93" mask="url(#path-22-outside-2)"/>
<path d="M130.676 81.0265C130.894 81.1524 131.174 81.0777 131.3 80.8597C131.426 80.6416 131.351 80.3628 131.133 80.237C130.914 80.1111 130.635 80.1858 130.509 80.4038C130.382 80.6219 130.457 80.9007 130.676 81.0265Z" stroke="#1E1E1E" stroke-opacity="0.93" mask="url(#path-22-outside-2)"/>
<path d="M127.705 86.1589C127.924 86.2848 128.203 86.2101 128.33 85.992C128.456 85.774 128.381 85.4952 128.162 85.3693C127.944 85.2434 127.664 85.3181 127.538 85.5362C127.412 85.7542 127.487 86.033 127.705 86.1589Z" stroke="#1E1E1E" stroke-opacity="0.93" mask="url(#path-22-outside-2)"/>
<path d="M131.596 81.9443C131.722 82.1623 132.001 82.237 132.22 82.1111C132.439 81.9853 132.513 81.7064 132.387 81.4884C132.261 81.2704 131.982 81.1957 131.763 81.3215C131.544 81.4474 131.47 81.7262 131.596 81.9443Z" stroke="#1E1E1E" stroke-opacity="0.93" mask="url(#path-22-outside-2)"/>
<path d="M126.451 84.9074C126.577 85.1255 126.856 85.2002 127.075 85.0743C127.294 84.9484 127.368 84.6696 127.242 84.4516C127.116 84.2335 126.837 84.1588 126.618 84.2847C126.399 84.4106 126.325 84.6894 126.451 84.9074Z" stroke="#1E1E1E" stroke-opacity="0.93" mask="url(#path-22-outside-2)"/>
<path d="M125.991 83.1979C125.991 83.4497 126.196 83.6538 126.448 83.6538C126.701 83.6538 126.905 83.4497 126.905 83.1979C126.905 82.9462 126.701 82.7421 126.448 82.7421C126.196 82.7421 125.991 82.9462 125.991 83.1979Z" stroke="#1E1E1E" stroke-opacity="0.93" mask="url(#path-22-outside-2)"/>
<path d="M131.932 83.1979C131.932 83.4497 132.137 83.6538 132.389 83.6538C132.642 83.6538 132.846 83.4497 132.846 83.1979C132.846 82.9462 132.642 82.7421 132.389 82.7421C132.137 82.7421 131.932 82.9462 131.932 83.1979Z" stroke="#1E1E1E" stroke-opacity="0.93" mask="url(#path-22-outside-2)"/>
<path d="M126.451 81.4884C126.325 81.7064 126.399 81.9853 126.618 82.1111C126.837 82.237 127.116 82.1623 127.242 81.9443C127.368 81.7262 127.294 81.4474 127.075 81.3215C126.856 81.1957 126.577 81.2704 126.451 81.4884Z" stroke="#1E1E1E" stroke-opacity="0.93" mask="url(#path-22-outside-2)"/>
<path d="M131.596 84.4516C131.47 84.6696 131.544 84.9484 131.763 85.0743C131.982 85.2002 132.261 85.1255 132.387 84.9074C132.513 84.6894 132.439 84.4106 132.22 84.2847C132.001 84.1588 131.722 84.2335 131.596 84.4516Z" stroke="#1E1E1E" stroke-opacity="0.93" mask="url(#path-22-outside-2)"/>
<path d="M127.705 80.237C127.487 80.3628 127.412 80.6416 127.538 80.8597C127.664 81.0777 127.944 81.1524 128.162 81.0265C128.381 80.9007 128.456 80.6219 128.33 80.4038C128.203 80.1858 127.924 80.1111 127.705 80.237Z" stroke="#1E1E1E" stroke-opacity="0.93" mask="url(#path-22-outside-2)"/>
<path d="M129.419 82.2862C129.672 82.2862 129.876 82.0821 129.876 81.8303C129.876 81.5785 129.672 81.3744 129.419 81.3744C129.167 81.3744 128.962 81.5785 128.962 81.8303C128.962 82.0821 129.167 82.2862 129.419 82.2862Z" stroke="#1E1E1E" stroke-opacity="0.93" mask="url(#path-22-outside-2)"/>
<path d="M129.419 85.0214C129.672 85.0214 129.876 84.8173 129.876 84.5655C129.876 84.3138 129.672 84.1097 129.419 84.1097C129.167 84.1097 128.962 84.3138 128.962 84.5655C128.962 84.8173 129.167 85.0214 129.419 85.0214Z" stroke="#1E1E1E" stroke-opacity="0.93" mask="url(#path-22-outside-2)"/>
<path d="M130.211 82.7421C130.337 82.9601 130.616 83.0348 130.835 82.9089C131.053 82.783 131.128 82.5042 131.002 82.2862C130.876 82.0681 130.596 81.9934 130.378 82.1193C130.159 82.2452 130.084 82.524 130.211 82.7421Z" stroke="#1E1E1E" stroke-opacity="0.93" mask="url(#path-22-outside-2)"/>
<path d="M127.836 84.1097C127.962 84.3277 128.242 84.4024 128.46 84.2765C128.679 84.1506 128.754 83.8718 128.628 83.6538C128.501 83.4358 128.222 83.361 128.003 83.4869C127.785 83.6128 127.71 83.8916 127.836 84.1097Z" stroke="#1E1E1E" stroke-opacity="0.93" mask="url(#path-22-outside-2)"/>
<path d="M127.836 82.2862C127.71 82.5042 127.785 82.783 128.003 82.9089C128.222 83.0348 128.501 82.9601 128.628 82.7421C128.754 82.524 128.679 82.2452 128.46 82.1193C128.242 81.9934 127.962 82.0681 127.836 82.2862Z" stroke="#1E1E1E" stroke-opacity="0.93" mask="url(#path-22-outside-2)"/>
<path d="M130.211 83.6538C130.084 83.8718 130.159 84.1506 130.378 84.2765C130.596 84.4024 130.876 84.3277 131.002 84.1097C131.128 83.8916 131.053 83.6128 130.835 83.4869C130.616 83.361 130.337 83.4358 130.211 83.6538Z" stroke="#1E1E1E" stroke-opacity="0.93" mask="url(#path-22-outside-2)"/>
<path d="M129.419 83.6538C129.671 83.6538 129.876 83.4497 129.876 83.1979C129.876 82.9462 129.671 82.7421 129.419 82.7421C129.167 82.7421 128.962 82.9462 128.962 83.1979C128.962 83.4497 129.167 83.6538 129.419 83.6538Z" stroke="#1E1E1E" stroke-opacity="0.93" mask="url(#path-22-outside-2)"/>
<g filter="url(#filter6_ii)">
<path d="M165.522 83.198C165.522 86.4711 162.862 89.1244 159.581 89.1244C156.3 89.1244 153.64 86.4711 153.64 83.198C153.64 79.925 156.3 77.2717 159.581 77.2717C162.862 77.2717 165.522 79.925 165.522 83.198Z" fill="#111113" fill-opacity="0.17"/>
</g>
<path fill-rule="evenodd" clip-rule="evenodd" d="M159.581 88.8964C162.736 88.8964 165.293 86.3452 165.293 83.198C165.293 80.0509 162.736 77.4997 159.581 77.4997C156.426 77.4997 153.868 80.0509 153.868 83.198C153.868 86.3452 156.426 88.8964 159.581 88.8964ZM159.581 89.1244C162.862 89.1244 165.522 86.4711 165.522 83.198C165.522 79.925 162.862 77.2717 159.581 77.2717C156.3 77.2717 153.64 79.925 153.64 83.198C153.64 86.4711 156.3 89.1244 159.581 89.1244Z" fill="black" fill-opacity="0.6"/>
<path d="M163.694 83.198C163.694 85.464 161.852 87.3009 159.581 87.3009C157.309 87.3009 155.468 85.464 155.468 83.198C155.468 80.9321 157.309 79.0952 159.581 79.0952C161.852 79.0952 163.694 80.9321 163.694 83.198Z" fill="url(#paint10_linear)"/>
<path d="M163.694 83.198C163.694 85.464 161.852 87.3009 159.581 87.3009C157.309 87.3009 155.468 85.464 155.468 83.198C155.468 80.9321 157.309 79.0952 159.581 79.0952C161.852 79.0952 163.694 80.9321 163.694 83.198Z" fill="url(#paint11_radial)"/>
<path d="M163.694 83.198C163.694 85.464 161.852 87.3009 159.581 87.3009C157.309 87.3009 155.468 85.464 155.468 83.198C155.468 80.9321 157.309 79.0952 159.581 79.0952C161.852 79.0952 163.694 80.9321 163.694 83.198Z" fill="url(#paint12_radial)"/>
<g filter="url(#filter7_i)">
<path fill-rule="evenodd" clip-rule="evenodd" d="M163.922 83.198C163.922 85.5898 161.979 87.5287 159.581 87.5287C157.183 87.5287 155.239 85.5898 155.239 83.198C155.239 80.8061 157.183 78.8672 159.581 78.8672C161.979 78.8672 163.922 80.8061 163.922 83.198ZM159.581 87.3008C161.852 87.3008 163.694 85.4639 163.694 83.198C163.694 80.932 161.852 79.0951 159.581 79.0951C157.309 79.0951 155.468 80.932 155.468 83.198C155.468 85.4639 157.309 87.3008 159.581 87.3008Z" fill="#0C0B0D"/>
</g>
<g opacity="0.7" filter="url(#filter8_f)">
<ellipse rx="1.37015" ry="2.05269" transform="matrix(0.86656 0.499072 -0.500928 0.865489 158.598 82.4672)" fill="url(#paint13_linear)"/>
</g>
<g filter="url(#filter9_d)">
<path d="M76 494C76 480.193 87.1929 469 101 469H212C212 482.807 200.807 494 187 494H76Z" fill="#2858D4"/>
</g>
<path d="M121.289 484.881C121 485.295 120.596 485.605 120.076 485.812C119.561 486.016 118.959 486.117 118.271 486.117C117.576 486.117 116.959 485.955 116.42 485.631C115.881 485.303 115.463 484.838 115.166 484.236C114.873 483.635 114.723 482.938 114.715 482.145V481.4C114.715 480.115 115.014 479.119 115.611 478.412C116.213 477.705 117.057 477.352 118.143 477.352C119.033 477.352 119.75 477.58 120.293 478.037C120.836 478.49 121.168 479.135 121.289 479.971H120.164C119.953 478.842 119.281 478.277 118.148 478.277C117.395 478.277 116.822 478.543 116.432 479.074C116.045 479.602 115.85 480.367 115.846 481.371V482.068C115.846 483.025 116.064 483.787 116.502 484.354C116.939 484.916 117.531 485.197 118.277 485.197C118.699 485.197 119.068 485.15 119.385 485.057C119.701 484.963 119.963 484.805 120.17 484.582V482.666H118.195V481.752H121.289V484.881ZM125.631 486.117C124.771 486.117 124.072 485.836 123.533 485.273C122.994 484.707 122.725 483.951 122.725 483.006V482.807C122.725 482.178 122.844 481.617 123.082 481.125C123.324 480.629 123.66 480.242 124.09 479.965C124.523 479.684 124.992 479.543 125.496 479.543C126.32 479.543 126.961 479.814 127.418 480.357C127.875 480.9 128.104 481.678 128.104 482.689V483.141H123.809C123.824 483.766 124.006 484.271 124.354 484.658C124.705 485.041 125.15 485.232 125.689 485.232C126.072 485.232 126.396 485.154 126.662 484.998C126.928 484.842 127.16 484.635 127.359 484.377L128.021 484.893C127.49 485.709 126.693 486.117 125.631 486.117ZM125.496 480.434C125.059 480.434 124.691 480.594 124.395 480.914C124.098 481.23 123.914 481.676 123.844 482.25H127.02V482.168C126.988 481.617 126.84 481.191 126.574 480.891C126.309 480.586 125.949 480.434 125.496 480.434ZM130.834 478.125V479.66H132.018V480.498H130.834V484.43C130.834 484.684 130.887 484.875 130.992 485.004C131.098 485.129 131.277 485.191 131.531 485.191C131.656 485.191 131.828 485.168 132.047 485.121V486C131.762 486.078 131.484 486.117 131.215 486.117C130.73 486.117 130.365 485.971 130.119 485.678C129.873 485.385 129.75 484.969 129.75 484.43V480.498H128.596V479.66H129.75V478.125H130.834ZM138.949 482.197C137.984 481.92 137.281 481.58 136.84 481.178C136.402 480.771 136.184 480.271 136.184 479.678C136.184 479.006 136.451 478.451 136.986 478.014C137.525 477.572 138.225 477.352 139.084 477.352C139.67 477.352 140.191 477.465 140.648 477.691C141.109 477.918 141.465 478.23 141.715 478.629C141.969 479.027 142.096 479.463 142.096 479.936H140.965C140.965 479.42 140.801 479.016 140.473 478.723C140.145 478.426 139.682 478.277 139.084 478.277C138.529 478.277 138.096 478.4 137.783 478.646C137.475 478.889 137.32 479.227 137.32 479.66C137.32 480.008 137.467 480.303 137.76 480.545C138.057 480.783 138.559 481.002 139.266 481.201C139.977 481.4 140.531 481.621 140.93 481.863C141.332 482.102 141.629 482.381 141.82 482.701C142.016 483.021 142.113 483.398 142.113 483.832C142.113 484.523 141.844 485.078 141.305 485.496C140.766 485.91 140.045 486.117 139.143 486.117C138.557 486.117 138.01 486.006 137.502 485.783C136.994 485.557 136.602 485.248 136.324 484.857C136.051 484.467 135.914 484.023 135.914 483.527H137.045C137.045 484.043 137.234 484.451 137.613 484.752C137.996 485.049 138.506 485.197 139.143 485.197C139.736 485.197 140.191 485.076 140.508 484.834C140.824 484.592 140.982 484.262 140.982 483.844C140.982 483.426 140.836 483.104 140.543 482.877C140.25 482.646 139.719 482.42 138.949 482.197ZM144.861 478.125V479.66H146.045V480.498H144.861V484.43C144.861 484.684 144.914 484.875 145.02 485.004C145.125 485.129 145.305 485.191 145.559 485.191C145.684 485.191 145.855 485.168 146.074 485.121V486C145.789 486.078 145.512 486.117 145.242 486.117C144.758 486.117 144.393 485.971 144.146 485.678C143.9 485.385 143.777 484.969 143.777 484.43V480.498H142.623V479.66H143.777V478.125H144.861ZM151.23 486C151.168 485.875 151.117 485.652 151.078 485.332C150.574 485.855 149.973 486.117 149.273 486.117C148.648 486.117 148.135 485.941 147.732 485.59C147.334 485.234 147.135 484.785 147.135 484.242C147.135 483.582 147.385 483.07 147.885 482.707C148.389 482.34 149.096 482.156 150.006 482.156H151.061V481.658C151.061 481.279 150.947 480.979 150.721 480.756C150.494 480.529 150.16 480.416 149.719 480.416C149.332 480.416 149.008 480.514 148.746 480.709C148.484 480.904 148.354 481.141 148.354 481.418H147.264C147.264 481.102 147.375 480.797 147.598 480.504C147.824 480.207 148.129 479.973 148.512 479.801C148.898 479.629 149.322 479.543 149.783 479.543C150.514 479.543 151.086 479.727 151.5 480.094C151.914 480.457 152.129 480.959 152.145 481.6V484.518C152.145 485.1 152.219 485.562 152.367 485.906V486H151.23ZM149.432 485.174C149.771 485.174 150.094 485.086 150.398 484.91C150.703 484.734 150.924 484.506 151.061 484.225V482.924H150.211C148.883 482.924 148.219 483.312 148.219 484.09C148.219 484.43 148.332 484.695 148.559 484.887C148.785 485.078 149.076 485.174 149.432 485.174ZM156.908 480.633C156.744 480.605 156.566 480.592 156.375 480.592C155.664 480.592 155.182 480.895 154.928 481.5V486H153.844V479.66H154.898L154.916 480.393C155.271 479.826 155.775 479.543 156.428 479.543C156.639 479.543 156.799 479.57 156.908 479.625V480.633ZM159.674 478.125V479.66H160.857V480.498H159.674V484.43C159.674 484.684 159.727 484.875 159.832 485.004C159.938 485.129 160.117 485.191 160.371 485.191C160.496 485.191 160.668 485.168 160.887 485.121V486C160.602 486.078 160.324 486.117 160.055 486.117C159.57 486.117 159.205 485.971 158.959 485.678C158.713 485.385 158.59 484.969 158.59 484.43V480.498H157.436V479.66H158.59V478.125H159.674ZM164.76 486.117C163.9 486.117 163.201 485.836 162.662 485.273C162.123 484.707 161.854 483.951 161.854 483.006V482.807C161.854 482.178 161.973 481.617 162.211 481.125C162.453 480.629 162.789 480.242 163.219 479.965C163.652 479.684 164.121 479.543 164.625 479.543C165.449 479.543 166.09 479.814 166.547 480.357C167.004 480.9 167.232 481.678 167.232 482.689V483.141H162.938C162.953 483.766 163.135 484.271 163.482 484.658C163.834 485.041 164.279 485.232 164.818 485.232C165.201 485.232 165.525 485.154 165.791 484.998C166.057 484.842 166.289 484.635 166.488 484.377L167.15 484.893C166.619 485.709 165.822 486.117 164.76 486.117ZM164.625 480.434C164.188 480.434 163.82 480.594 163.523 480.914C163.227 481.23 163.043 481.676 162.973 482.25H166.148V482.168C166.117 481.617 165.969 481.191 165.703 480.891C165.438 480.586 165.078 480.434 164.625 480.434ZM168.229 482.777C168.229 481.805 168.459 481.023 168.92 480.434C169.381 479.84 169.984 479.543 170.73 479.543C171.473 479.543 172.061 479.797 172.494 480.305V477H173.578V486H172.582L172.529 485.32C172.096 485.852 171.492 486.117 170.719 486.117C169.984 486.117 169.385 485.816 168.92 485.215C168.459 484.613 168.229 483.828 168.229 482.859V482.777ZM169.312 482.9C169.312 483.619 169.461 484.182 169.758 484.588C170.055 484.994 170.465 485.197 170.988 485.197C171.676 485.197 172.178 484.889 172.494 484.271V481.359C172.17 480.762 171.672 480.463 171 480.463C170.469 480.463 170.055 480.668 169.758 481.078C169.461 481.488 169.312 482.096 169.312 482.9Z" fill="white"/>
<path d="M94.002 281.377L94.4941 281.726C94.084 282.263 93.8721 282.842 93.8584 283.462V284.337H93.0449V283.571C93.0449 283.152 93.1292 282.749 93.2979 282.361C93.471 281.974 93.7057 281.646 94.002 281.377ZM95.7178 281.377L96.21 281.726C95.7998 282.263 95.5879 282.842 95.5742 283.462V284.337H94.7607V283.571C94.7607 283.152 94.8451 282.749 95.0137 282.361C95.1868 281.974 95.4215 281.646 95.7178 281.377ZM105.22 292H104.379L98.6572 283.482V292H97.8096V282.047H98.6572L104.386 290.571V282.047H105.22V292ZM110.422 292.137C109.793 292.137 109.223 291.982 108.713 291.672C108.207 291.362 107.813 290.931 107.53 290.38C107.248 289.824 107.106 289.202 107.106 288.514V288.22C107.106 287.509 107.243 286.868 107.517 286.299C107.795 285.729 108.18 285.283 108.672 284.959C109.164 284.631 109.697 284.467 110.271 284.467C111.169 284.467 111.88 284.774 112.404 285.39C112.933 286 113.197 286.837 113.197 287.898V288.356H107.92V288.514C107.92 289.352 108.159 290.052 108.638 290.612C109.121 291.168 109.727 291.446 110.456 291.446C110.894 291.446 111.279 291.367 111.611 291.207C111.949 291.048 112.254 290.792 112.527 290.441L113.04 290.831C112.438 291.701 111.566 292.137 110.422 292.137ZM110.271 285.164C109.656 285.164 109.137 285.39 108.713 285.841C108.294 286.292 108.038 286.898 107.947 287.659H112.384V287.57C112.361 286.859 112.158 286.281 111.775 285.834C111.393 285.387 110.891 285.164 110.271 285.164ZM116.561 290.298L116.684 290.934L116.848 290.264L118.625 284.604H119.322L121.079 290.216L121.271 290.995L121.428 290.277L122.945 284.604H123.793L121.64 292H120.942L119.042 286.135L118.953 285.731L118.864 286.142L116.998 292H116.301L114.154 284.604H114.995L116.561 290.298ZM129.774 290.12C129.774 289.715 129.61 289.389 129.282 289.143C128.959 288.896 128.469 288.705 127.812 288.568C127.156 288.427 126.646 288.268 126.281 288.09C125.921 287.908 125.652 287.687 125.475 287.427C125.301 287.167 125.215 286.853 125.215 286.483C125.215 285.9 125.459 285.419 125.946 285.041C126.434 284.658 127.058 284.467 127.819 284.467C128.644 284.467 129.305 284.672 129.802 285.082C130.303 285.488 130.554 286.019 130.554 286.675H129.733C129.733 286.242 129.551 285.882 129.187 285.595C128.826 285.308 128.371 285.164 127.819 285.164C127.282 285.164 126.849 285.285 126.521 285.526C126.197 285.763 126.035 286.073 126.035 286.456C126.035 286.825 126.17 287.112 126.438 287.317C126.712 287.518 127.206 287.702 127.922 287.871C128.642 288.04 129.18 288.22 129.535 288.411C129.895 288.603 130.162 288.833 130.335 289.102C130.508 289.37 130.595 289.696 130.595 290.079C130.595 290.703 130.342 291.202 129.836 291.576C129.335 291.95 128.678 292.137 127.867 292.137C127.006 292.137 126.306 291.929 125.769 291.515C125.235 291.095 124.969 290.567 124.969 289.929H125.789C125.821 290.407 126.021 290.781 126.391 291.05C126.764 291.314 127.257 291.446 127.867 291.446C128.437 291.446 128.897 291.321 129.248 291.07C129.599 290.82 129.774 290.503 129.774 290.12ZM135.517 288.233C135.517 287.085 135.772 286.171 136.282 285.492C136.797 284.809 137.494 284.467 138.374 284.467C139.372 284.467 140.133 284.861 140.657 285.649V281.5H141.471V292H140.705L140.671 291.016C140.147 291.763 139.377 292.137 138.36 292.137C137.508 292.137 136.82 291.795 136.296 291.111C135.776 290.423 135.517 289.496 135.517 288.329V288.233ZM136.344 288.377C136.344 289.32 136.533 290.065 136.911 290.612C137.289 291.155 137.823 291.426 138.511 291.426C139.518 291.426 140.233 290.981 140.657 290.093V286.62C140.233 285.659 139.522 285.178 138.524 285.178C137.836 285.178 137.301 285.449 136.918 285.991C136.535 286.529 136.344 287.324 136.344 288.377ZM146.488 292.137C145.859 292.137 145.29 291.982 144.779 291.672C144.273 291.362 143.879 290.931 143.597 290.38C143.314 289.824 143.173 289.202 143.173 288.514V288.22C143.173 287.509 143.31 286.868 143.583 286.299C143.861 285.729 144.246 285.283 144.738 284.959C145.23 284.631 145.764 284.467 146.338 284.467C147.236 284.467 147.947 284.774 148.471 285.39C148.999 286 149.264 286.837 149.264 287.898V288.356H143.986V288.514C143.986 289.352 144.226 290.052 144.704 290.612C145.187 291.168 145.793 291.446 146.522 291.446C146.96 291.446 147.345 291.367 147.678 291.207C148.015 291.048 148.32 290.792 148.594 290.441L149.106 290.831C148.505 291.701 147.632 292.137 146.488 292.137ZM146.338 285.164C145.723 285.164 145.203 285.39 144.779 285.841C144.36 286.292 144.105 286.898 144.014 287.659H148.45V287.57C148.427 286.859 148.225 286.281 147.842 285.834C147.459 285.387 146.958 285.164 146.338 285.164ZM151.772 292H150.952V281.5H151.772V292ZM154.917 292H154.097V284.604H154.917V292ZM153.953 282.464C153.953 282.309 154.003 282.179 154.104 282.074C154.204 281.965 154.34 281.91 154.514 281.91C154.687 281.91 154.824 281.965 154.924 282.074C155.029 282.179 155.081 282.309 155.081 282.464C155.081 282.619 155.029 282.749 154.924 282.854C154.824 282.958 154.687 283.011 154.514 283.011C154.34 283.011 154.204 282.958 154.104 282.854C154.003 282.749 153.953 282.619 153.953 282.464ZM159.449 290.872L161.698 284.604H162.539L159.777 292H159.114L156.339 284.604H157.18L159.449 290.872ZM166.654 292.137C166.025 292.137 165.456 291.982 164.945 291.672C164.439 291.362 164.045 290.931 163.763 290.38C163.48 289.824 163.339 289.202 163.339 288.514V288.22C163.339 287.509 163.476 286.868 163.749 286.299C164.027 285.729 164.412 285.283 164.904 284.959C165.396 284.631 165.93 284.467 166.504 284.467C167.402 284.467 168.113 284.774 168.637 285.39C169.165 286 169.43 286.837 169.43 287.898V288.356H164.152V288.514C164.152 289.352 164.392 290.052 164.87 290.612C165.353 291.168 165.959 291.446 166.688 291.446C167.126 291.446 167.511 291.367 167.844 291.207C168.181 291.048 168.486 290.792 168.76 290.441L169.272 290.831C168.671 291.701 167.798 292.137 166.654 292.137ZM166.504 285.164C165.889 285.164 165.369 285.39 164.945 285.841C164.526 286.292 164.271 286.898 164.18 287.659H168.616V287.57C168.593 286.859 168.391 286.281 168.008 285.834C167.625 285.387 167.124 285.164 166.504 285.164ZM174.44 285.301C174.267 285.269 174.083 285.253 173.887 285.253C173.376 285.253 172.943 285.396 172.588 285.684C172.237 285.966 171.986 286.379 171.836 286.921V292H171.022V284.604H171.822L171.836 285.779C172.269 284.904 172.964 284.467 173.921 284.467C174.149 284.467 174.329 284.496 174.461 284.556L174.44 285.301ZM178.467 292.137C177.838 292.137 177.268 291.982 176.758 291.672C176.252 291.362 175.858 290.931 175.575 290.38C175.293 289.824 175.151 289.202 175.151 288.514V288.22C175.151 287.509 175.288 286.868 175.562 286.299C175.84 285.729 176.225 285.283 176.717 284.959C177.209 284.631 177.742 284.467 178.316 284.467C179.214 284.467 179.925 284.774 180.449 285.39C180.978 286 181.242 286.837 181.242 287.898V288.356H175.965V288.514C175.965 289.352 176.204 290.052 176.683 290.612C177.166 291.168 177.772 291.446 178.501 291.446C178.938 291.446 179.324 291.367 179.656 291.207C179.993 291.048 180.299 290.792 180.572 290.441L181.085 290.831C180.483 291.701 179.611 292.137 178.467 292.137ZM178.316 285.164C177.701 285.164 177.182 285.39 176.758 285.841C176.339 286.292 176.083 286.898 175.992 287.659H180.429V287.57C180.406 286.859 180.203 286.281 179.82 285.834C179.438 285.387 178.936 285.164 178.316 285.164ZM182.507 288.233C182.507 287.085 182.762 286.171 183.272 285.492C183.787 284.809 184.485 284.467 185.364 284.467C186.362 284.467 187.123 284.861 187.647 285.649V281.5H188.461V292H187.695L187.661 291.016C187.137 291.763 186.367 292.137 185.351 292.137C184.498 292.137 183.81 291.795 183.286 291.111C182.767 290.423 182.507 289.496 182.507 288.329V288.233ZM183.334 288.377C183.334 289.32 183.523 290.065 183.901 290.612C184.28 291.155 184.813 291.426 185.501 291.426C186.508 291.426 187.224 290.981 187.647 290.093V286.62C187.224 285.659 186.513 285.178 185.515 285.178C184.826 285.178 184.291 285.449 183.908 285.991C183.525 286.529 183.334 287.324 183.334 288.377ZM190.443 293.859L189.958 293.504C190.373 292.948 190.587 292.371 190.601 291.774V290.715H191.4V291.569C191.4 292.517 191.081 293.281 190.443 293.859ZM88.2734 304.377C88.2734 305.53 88.0182 306.446 87.5078 307.125C86.9974 307.799 86.3115 308.137 85.4502 308.137C84.4202 308.137 83.641 307.754 83.1123 306.988L83.0781 308H82.3125V297.5H83.126V301.677C83.6455 300.87 84.4157 300.467 85.4365 300.467C86.3115 300.467 87.002 300.802 87.5078 301.472C88.0182 302.137 88.2734 303.064 88.2734 304.254V304.377ZM87.4531 304.233C87.4531 303.258 87.264 302.506 86.8857 301.978C86.5075 301.444 85.9743 301.178 85.2861 301.178C84.762 301.178 84.3177 301.308 83.9531 301.567C83.5885 301.823 83.3128 302.199 83.126 302.695V306.031C83.5361 306.961 84.2607 307.426 85.2998 307.426C85.9743 307.426 86.5007 307.159 86.8789 306.626C87.2617 306.093 87.4531 305.295 87.4531 304.233ZM92.9492 308.137C92.3203 308.137 91.7507 307.982 91.2402 307.672C90.7344 307.362 90.3402 306.931 90.0576 306.38C89.7751 305.824 89.6338 305.202 89.6338 304.514V304.22C89.6338 303.509 89.7705 302.868 90.0439 302.299C90.3219 301.729 90.707 301.283 91.1992 300.959C91.6914 300.631 92.2246 300.467 92.7988 300.467C93.6966 300.467 94.4076 300.774 94.9316 301.39C95.4603 302 95.7246 302.837 95.7246 303.898V304.356H90.4473V304.514C90.4473 305.352 90.6865 306.052 91.165 306.612C91.6481 307.168 92.2542 307.446 92.9834 307.446C93.4209 307.446 93.806 307.367 94.1387 307.207C94.4759 307.048 94.7812 306.792 95.0547 306.441L95.5674 306.831C94.9658 307.701 94.0931 308.137 92.9492 308.137ZM92.7988 301.164C92.1836 301.164 91.6641 301.39 91.2402 301.841C90.821 302.292 90.5658 302.898 90.4746 303.659H94.9111V303.57C94.8883 302.859 94.6855 302.281 94.3027 301.834C93.9199 301.387 93.4186 301.164 92.7988 301.164ZM97.9053 308V301.273H96.6816V300.604H97.9053V299.708C97.9053 298.951 98.0967 298.37 98.4795 297.965C98.8669 297.559 99.4046 297.356 100.093 297.356C100.403 297.356 100.692 297.395 100.961 297.473L100.899 298.156C100.672 298.102 100.423 298.074 100.154 298.074C99.7031 298.074 99.3522 298.215 99.1016 298.498C98.8509 298.776 98.7256 299.173 98.7256 299.688V300.604H100.489V301.273H98.7256V308H97.9053ZM101.501 304.192C101.501 303.481 101.638 302.841 101.911 302.271C102.189 301.702 102.579 301.26 103.08 300.945C103.586 300.626 104.158 300.467 104.796 300.467C105.78 300.467 106.578 300.813 107.188 301.506C107.799 302.194 108.104 303.108 108.104 304.247V304.418C108.104 305.133 107.965 305.778 107.688 306.353C107.414 306.922 107.027 307.362 106.525 307.672C106.024 307.982 105.452 308.137 104.81 308.137C103.83 308.137 103.032 307.793 102.417 307.104C101.806 306.412 101.501 305.496 101.501 304.356V304.192ZM102.321 304.418C102.321 305.302 102.549 306.029 103.005 306.599C103.465 307.164 104.067 307.446 104.81 307.446C105.548 307.446 106.145 307.164 106.601 306.599C107.061 306.029 107.291 305.279 107.291 304.35V304.192C107.291 303.627 107.186 303.11 106.977 302.641C106.767 302.171 106.473 301.809 106.095 301.554C105.716 301.294 105.284 301.164 104.796 301.164C104.067 301.164 103.472 301.451 103.012 302.025C102.551 302.595 102.321 303.342 102.321 304.268V304.418ZM113.218 301.301C113.045 301.269 112.86 301.253 112.664 301.253C112.154 301.253 111.721 301.396 111.365 301.684C111.014 301.966 110.764 302.379 110.613 302.921V308H109.8V300.604H110.6L110.613 301.779C111.046 300.904 111.741 300.467 112.698 300.467C112.926 300.467 113.106 300.496 113.238 300.556L113.218 301.301ZM117.244 308.137C116.615 308.137 116.046 307.982 115.535 307.672C115.029 307.362 114.635 306.931 114.353 306.38C114.07 305.824 113.929 305.202 113.929 304.514V304.22C113.929 303.509 114.065 302.868 114.339 302.299C114.617 301.729 115.002 301.283 115.494 300.959C115.986 300.631 116.52 300.467 117.094 300.467C117.992 300.467 118.702 300.774 119.227 301.39C119.755 302 120.02 302.837 120.02 303.898V304.356H114.742V304.514C114.742 305.352 114.981 306.052 115.46 306.612C115.943 307.168 116.549 307.446 117.278 307.446C117.716 307.446 118.101 307.367 118.434 307.207C118.771 307.048 119.076 306.792 119.35 306.441L119.862 306.831C119.261 307.701 118.388 308.137 117.244 308.137ZM117.094 301.164C116.479 301.164 115.959 301.39 115.535 301.841C115.116 302.292 114.861 302.898 114.77 303.659H119.206V303.57C119.183 302.859 118.98 302.281 118.598 301.834C118.215 301.387 117.714 301.164 117.094 301.164ZM127.361 306.824L129.521 300.604H130.403L127.245 309.258L127.081 309.641C126.675 310.538 126.049 310.987 125.201 310.987C125.005 310.987 124.796 310.955 124.572 310.892L124.565 310.215L124.989 310.256C125.39 310.256 125.714 310.156 125.96 309.955C126.211 309.759 126.423 309.42 126.596 308.937L126.958 307.938L124.169 300.604H125.064L127.361 306.824ZM131.114 304.192C131.114 303.481 131.251 302.841 131.524 302.271C131.802 301.702 132.192 301.26 132.693 300.945C133.199 300.626 133.771 300.467 134.409 300.467C135.394 300.467 136.191 300.813 136.802 301.506C137.412 302.194 137.718 303.108 137.718 304.247V304.418C137.718 305.133 137.579 305.778 137.301 306.353C137.027 306.922 136.64 307.362 136.139 307.672C135.637 307.982 135.065 308.137 134.423 308.137C133.443 308.137 132.646 307.793 132.03 307.104C131.42 306.412 131.114 305.496 131.114 304.356V304.192ZM131.935 304.418C131.935 305.302 132.162 306.029 132.618 306.599C133.078 307.164 133.68 307.446 134.423 307.446C135.161 307.446 135.758 307.164 136.214 306.599C136.674 306.029 136.904 305.279 136.904 304.35V304.192C136.904 303.627 136.799 303.11 136.59 302.641C136.38 302.171 136.086 301.809 135.708 301.554C135.33 301.294 134.897 301.164 134.409 301.164C133.68 301.164 133.085 301.451 132.625 302.025C132.165 302.595 131.935 303.342 131.935 304.268V304.418ZM144.171 307.063C143.679 307.779 142.893 308.137 141.812 308.137C141.024 308.137 140.425 307.909 140.015 307.453C139.604 306.993 139.395 306.314 139.386 305.416V300.604H140.199V305.313C140.199 306.722 140.769 307.426 141.908 307.426C143.093 307.426 143.843 306.936 144.157 305.956V300.604H144.978V308H144.185L144.171 307.063ZM152.285 306.298L152.408 306.934L152.572 306.264L154.35 300.604H155.047L156.804 306.216L156.995 306.995L157.152 306.277L158.67 300.604H159.518L157.364 308H156.667L154.767 302.135L154.678 301.731L154.589 302.142L152.723 308H152.025L149.879 300.604H150.72L152.285 306.298ZM165.738 308C165.656 307.768 165.604 307.424 165.581 306.968C165.294 307.341 164.927 307.631 164.48 307.836C164.038 308.036 163.569 308.137 163.072 308.137C162.361 308.137 161.785 307.938 161.343 307.542C160.905 307.146 160.687 306.644 160.687 306.038C160.687 305.318 160.985 304.748 161.582 304.329C162.184 303.91 163.02 303.7 164.091 303.7H165.574V302.859C165.574 302.331 165.41 301.916 165.082 301.615C164.758 301.31 164.285 301.157 163.66 301.157C163.09 301.157 162.619 301.303 162.245 301.595C161.871 301.886 161.685 302.237 161.685 302.647L160.864 302.641C160.864 302.053 161.138 301.545 161.685 301.116C162.231 300.683 162.904 300.467 163.701 300.467C164.526 300.467 165.175 300.674 165.649 301.089C166.128 301.499 166.374 302.073 166.388 302.812V306.312C166.388 307.027 166.463 307.562 166.613 307.918V308H165.738ZM163.168 307.412C163.715 307.412 164.202 307.28 164.631 307.016C165.064 306.751 165.378 306.398 165.574 305.956V304.329H164.111C163.296 304.338 162.658 304.489 162.197 304.78C161.737 305.067 161.507 305.464 161.507 305.97C161.507 306.384 161.66 306.729 161.965 307.002C162.275 307.275 162.676 307.412 163.168 307.412ZM170.332 304.274L169.396 305.177V308H168.575V297.5H169.396V304.22L170.168 303.386L172.998 300.604H174.03L170.893 303.721L174.304 308H173.326L170.332 304.274ZM178.166 308.137C177.537 308.137 176.967 307.982 176.457 307.672C175.951 307.362 175.557 306.931 175.274 306.38C174.992 305.824 174.851 305.202 174.851 304.514V304.22C174.851 303.509 174.987 302.868 175.261 302.299C175.539 301.729 175.924 301.283 176.416 300.959C176.908 300.631 177.441 300.467 178.016 300.467C178.913 300.467 179.624 300.774 180.148 301.39C180.677 302 180.941 302.837 180.941 303.898V304.356H175.664V304.514C175.664 305.352 175.903 306.052 176.382 306.612C176.865 307.168 177.471 307.446 178.2 307.446C178.638 307.446 179.023 307.367 179.355 307.207C179.693 307.048 179.998 306.792 180.271 306.441L180.784 306.831C180.183 307.701 179.31 308.137 178.166 308.137ZM178.016 301.164C177.4 301.164 176.881 301.39 176.457 301.841C176.038 302.292 175.783 302.898 175.691 303.659H180.128V303.57C180.105 302.859 179.902 302.281 179.52 301.834C179.137 301.387 178.635 301.164 178.016 301.164ZM190.696 307.063C190.204 307.779 189.418 308.137 188.338 308.137C187.549 308.137 186.95 307.909 186.54 307.453C186.13 306.993 185.92 306.314 185.911 305.416V300.604H186.725V305.313C186.725 306.722 187.294 307.426 188.434 307.426C189.618 307.426 190.368 306.936 190.683 305.956V300.604H191.503V308H190.71L190.696 307.063ZM199.583 304.377C199.583 305.53 199.328 306.446 198.817 307.125C198.307 307.799 197.623 308.137 196.767 308.137C195.755 308.137 194.98 307.781 194.442 307.07V310.844H193.629V300.604H194.388L194.429 301.649C194.962 300.861 195.734 300.467 196.746 300.467C197.63 300.467 198.323 300.802 198.824 301.472C199.33 302.142 199.583 303.071 199.583 304.261V304.377ZM198.763 304.233C198.763 303.29 198.569 302.545 198.182 301.998C197.794 301.451 197.254 301.178 196.562 301.178C196.06 301.178 195.63 301.299 195.27 301.54C194.91 301.782 194.634 302.132 194.442 302.593V306.141C194.638 306.564 194.919 306.888 195.283 307.111C195.648 307.335 196.078 307.446 196.575 307.446C197.263 307.446 197.799 307.173 198.182 306.626C198.569 306.075 198.763 305.277 198.763 304.233ZM201.326 307.508C201.326 307.348 201.376 307.214 201.477 307.104C201.581 306.991 201.725 306.934 201.907 306.934C202.09 306.934 202.233 306.991 202.338 307.104C202.443 307.214 202.495 307.348 202.495 307.508C202.495 307.667 202.443 307.799 202.338 307.904C202.233 308.005 202.09 308.055 201.907 308.055C201.725 308.055 201.581 308.005 201.477 307.904C201.376 307.799 201.326 307.667 201.326 307.508ZM203.473 300.487L202.987 300.132C203.397 299.58 203.609 299.002 203.623 298.396V297.5H204.43V298.19C204.43 299.143 204.111 299.909 203.473 300.487ZM205.141 300.487L204.655 300.132C205.065 299.58 205.277 299.002 205.291 298.396V297.5H206.098V298.19C206.098 299.143 205.779 299.909 205.141 300.487Z" fill="#2E2E2E"/>
<path d="M144 370H130V384H144V370ZM142 382H132V372H142V382Z" fill="#2E2E2E"/>
<path d="M165 370H149C148.447 370 148 370.447 148 371C148 371.553 148.447 372 149 372H165C165.553 372 166 371.553 166 371C166 370.447 165.553 370 165 370Z" fill="#2E2E2E"/>
<path d="M165 376H149C148.447 376 148 376.447 148 377C148 377.553 148.447 378 149 378H165C165.553 378 166 377.553 166 377C166 376.447 165.553 376 165 376Z" fill="#2E2E2E"/>
<path d="M165 382H149C148.447 382 148 382.447 148 383C148 383.553 148.447 384 149 384H165C165.553 384 166 383.553 166 383C166 382.447 165.553 382 165 382Z" fill="#2E2E2E"/>
<path d="M165 388H132C131.447 388 131 388.447 131 389C131 389.553 131.447 390 132 390H165C165.553 390 166 389.553 166 389C166 388.447 165.553 388 165 388Z" fill="#2E2E2E"/>
<path d="M147 394H132C131.447 394 131 394.447 131 395C131 395.553 131.447 396 132 396H147C147.553 396 148 395.553 148 395C148 394.447 147.553 394 147 394Z" fill="#2E2E2E"/>
<path d="M147 400H132C131.447 400 131 400.447 131 401C131 401.553 131.447 402 132 402H147C147.553 402 148 401.553 148 401C148 400.447 147.553 400 147 400Z" fill="#2E2E2E"/>
<path d="M147 406H132C131.447 406 131 406.447 131 407C131 407.553 131.447 408 132 408H147C147.553 408 148 407.553 148 407C148 406.447 147.553 406 147 406Z" fill="#2E2E2E"/>
<path d="M152 408H166V394H152V408ZM154 396H164V406H154V396Z" fill="#2E2E2E"/>
<path d="M172 367C172 366.983 171.991 366.969 171.99 366.952V354H124V384H114V408C114 411.309 116.691 414 120 414H166C169.303 414 171.99 411.312 171.99 408.01V367.048C171.991 367.031 172 367.017 172 367ZM169.99 356V366H126V356H169.99ZM116 408V386H124V408C124 410.206 122.206 412 120 412C117.794 412 116 410.206 116 408ZM166 412H124.469C124.485 411.982 124.496 411.961 124.511 411.943C124.715 411.71 124.901 411.461 125.067 411.198C125.094 411.156 125.119 411.114 125.145 411.07C125.307 410.8 125.45 410.518 125.568 410.222C125.584 410.181 125.598 410.14 125.613 410.099C125.728 409.793 125.822 409.477 125.886 409.15C125.892 409.12 125.894 409.089 125.9 409.06C125.962 408.716 126 408.362 126 408V384V368H169.99V408.01C169.99 410.21 168.2 412 166 412Z" fill="#2E2E2E"/>
<path d="M160 358H136V364H160V358ZM158 362H138V360H158V362Z" fill="#2E2E2E"/>
<defs>
<filter id="filter0_i" x="275.715" y="163.887" width="4.28497" height="72.9393" filterUnits="userSpaceOnUse" color-interpolation-filters="sRGB">
<feFlood flood-opacity="0" result="BackgroundImageFix"/>
<feBlend mode="normal" in="SourceGraphic" in2="BackgroundImageFix" result="shape"/>
<feColorMatrix in="SourceAlpha" type="matrix" values="0 0 0 0 0 0 0 0 0 0 0 0 0 0 0 0 0 0 127 0" result="hardAlpha"/>
<feOffset dx="-2"/>
<feGaussianBlur stdDeviation="1.5"/>
<feComposite in2="hardAlpha" operator="arithmetic" k2="-1" k3="1"/>
<feColorMatrix type="matrix" values="0 0 0 0 0 0 0 0 0 0 0 0 0 0 0 0 0 0 0.8 0"/>
<feBlend mode="normal" in2="shape" result="effect1_innerShadow"/>
</filter>
<filter id="filter1_i" x="275.715" y="260.076" width="4.28497" height="32.3668" filterUnits="userSpaceOnUse" color-interpolation-filters="sRGB">
<feFlood flood-opacity="0" result="BackgroundImageFix"/>
<feBlend mode="normal" in="SourceGraphic" in2="BackgroundImageFix" result="shape"/>
<feColorMatrix in="SourceAlpha" type="matrix" values="0 0 0 0 0 0 0 0 0 0 0 0 0 0 0 0 0 0 127 0" result="hardAlpha"/>
<feOffset dx="-2"/>
<feGaussianBlur stdDeviation="1.5"/>
<feComposite in2="hardAlpha" operator="arithmetic" k2="-1" k3="1"/>
<feColorMatrix type="matrix" values="0 0 0 0 0 0 0 0 0 0 0 0 0 0 0 0 0 0 0.8 0"/>
<feBlend mode="normal" in2="shape" result="effect1_innerShadow"/>
</filter>
<filter id="filter2_ii" x="9" y="62" width="269.401" height="563" filterUnits="userSpaceOnUse" color-interpolation-filters="sRGB">
<feFlood flood-opacity="0" result="BackgroundImageFix"/>
<feBlend mode="normal" in="SourceGraphic" in2="BackgroundImageFix" result="shape"/>
<feColorMatrix in="SourceAlpha" type="matrix" values="0 0 0 0 0 0 0 0 0 0 0 0 0 0 0 0 0 0 127 0" result="hardAlpha"/>
<feOffset/>
<feGaussianBlur stdDeviation="7"/>
<feComposite in2="hardAlpha" operator="arithmetic" k2="-1" k3="1"/>
<feColorMatrix type="matrix" values="0 0 0 0 0 0 0 0 0 0 0 0 0 0 0 0 0 0 0.53 0"/>
<feBlend mode="normal" in2="shape" result="effect1_innerShadow"/>
<feColorMatrix in="SourceAlpha" type="matrix" values="0 0 0 0 0 0 0 0 0 0 0 0 0 0 0 0 0 0 127 0" result="hardAlpha"/>
<feOffset/>
<feGaussianBlur stdDeviation="19"/>
<feComposite in2="hardAlpha" operator="arithmetic" k2="-1" k3="1"/>
<feColorMatrix type="matrix" values="0 0 0 0 0 0 0 0 0 0 0 0 0 0 0 0 0 0 0.82 0"/>
<feBlend mode="normal" in2="effect1_innerShadow" result="effect2_innerShadow"/>
</filter>
<filter id="filter3_ddi" x="0.741974" y="53.7351" width="285.917" height="579.53" filterUnits="userSpaceOnUse" color-interpolation-filters="sRGB">
<feFlood flood-opacity="0" result="BackgroundImageFix"/>
<feColorMatrix in="SourceAlpha" type="matrix" values="0 0 0 0 0 0 0 0 0 0 0 0 0 0 0 0 0 0 127 0"/>
<feOffset/>
<feGaussianBlur stdDeviation="5"/>
<feColorMatrix type="matrix" values="0 0 0 0 1 0 0 0 0 1 0 0 0 0 1 0 0 0 1 0"/>
<feBlend mode="overlay" in2="BackgroundImageFix" result="effect1_dropShadow"/>
<feColorMatrix in="SourceAlpha" type="matrix" values="0 0 0 0 0 0 0 0 0 0 0 0 0 0 0 0 0 0 127 0"/>
<feOffset/>
<feGaussianBlur stdDeviation="2"/>
<feColorMatrix type="matrix" values="0 0 0 0 1 0 0 0 0 1 0 0 0 0 1 0 0 0 0.95 0"/>
<feBlend mode="soft-light" in2="effect1_dropShadow" result="effect2_dropShadow"/>
<feBlend mode="normal" in="SourceGraphic" in2="effect2_dropShadow" result="shape"/>
<feColorMatrix in="SourceAlpha" type="matrix" values="0 0 0 0 0 0 0 0 0 0 0 0 0 0 0 0 0 0 127 0" result="hardAlpha"/>
<feOffset/>
<feGaussianBlur stdDeviation="10"/>
<feComposite in2="hardAlpha" operator="arithmetic" k2="-1" k3="1"/>
<feColorMatrix type="matrix" values="0 0 0 0 0 0 0 0 0 0 0 0 0 0 0 0 0 0 0.9 0"/>
<feBlend mode="multiply" in2="shape" result="effect3_innerShadow"/>
</filter>
<filter id="filter4_d" x="16" y="77" width="256" height="534" filterUnits="userSpaceOnUse" color-interpolation-filters="sRGB">
<feFlood flood-opacity="0" result="BackgroundImageFix"/>
<feColorMatrix in="SourceAlpha" type="matrix" values="0 0 0 0 0 0 0 0 0 0 0 0 0 0 0 0 0 0 127 0"/>
<feOffset dy="4"/>
<feGaussianBlur stdDeviation="2"/>
<feColorMatrix type="matrix" values="0 0 0 0 0 0 0 0 0 0 0 0 0 0 0 0 0 0 1 0"/>
<feBlend mode="normal" in2="BackgroundImageFix" result="effect1_dropShadow"/>
<feBlend mode="normal" in="SourceGraphic" in2="effect1_dropShadow" result="shape"/>
</filter>
<filter id="filter5_i" x="123.892" y="77.6833" width="12.054" height="12.0292" filterUnits="userSpaceOnUse" color-interpolation-filters="sRGB">
<feFlood flood-opacity="0" result="BackgroundImageFix"/>
<feBlend mode="normal" in="SourceGraphic" in2="BackgroundImageFix" result="shape"/>
<feColorMatrix in="SourceAlpha" type="matrix" values="0 0 0 0 0 0 0 0 0 0 0 0 0 0 0 0 0 0 127 0" result="hardAlpha"/>
<feOffset dx="1" dy="1"/>
<feGaussianBlur stdDeviation="1"/>
<feComposite in2="hardAlpha" operator="arithmetic" k2="-1" k3="1"/>
<feColorMatrix type="matrix" values="0 0 0 0 0 0 0 0 0 0 0 0 0 0 0 0 0 0 0.72 0"/>
<feBlend mode="normal" in2="shape" result="effect1_innerShadow"/>
</filter>
<filter id="filter6_ii" x="153.64" y="77.2717" width="11.882" height="11.8526" filterUnits="userSpaceOnUse" color-interpolation-filters="sRGB">
<feFlood flood-opacity="0" result="BackgroundImageFix"/>
<feBlend mode="normal" in="SourceGraphic" in2="BackgroundImageFix" result="shape"/>
<feColorMatrix in="SourceAlpha" type="matrix" values="0 0 0 0 0 0 0 0 0 0 0 0 0 0 0 0 0 0 127 0" result="hardAlpha"/>
<feOffset/>
<feGaussianBlur stdDeviation="10"/>
<feComposite in2="hardAlpha" operator="arithmetic" k2="-1" k3="1"/>
<feColorMatrix type="matrix" values="0 0 0 0 0.1 0 0 0 0 0.1 0 0 0 0 0.1 0 0 0 0.6 0"/>
<feBlend mode="normal" in2="shape" result="effect1_innerShadow"/>
<feColorMatrix in="SourceAlpha" type="matrix" values="0 0 0 0 0 0 0 0 0 0 0 0 0 0 0 0 0 0 127 0" result="hardAlpha"/>
<feOffset/>
<feGaussianBlur stdDeviation="3"/>
<feComposite in2="hardAlpha" operator="arithmetic" k2="-1" k3="1"/>
<feColorMatrix type="matrix" values="0 0 0 0 0.222707 0 0 0 0 0.222707 0 0 0 0 0.222707 0 0 0 0.4 0"/>
<feBlend mode="normal" in2="effect1_innerShadow" result="effect2_innerShadow"/>
</filter>
<filter id="filter7_i" x="155.239" y="78.8672" width="8.68297" height="9.66154" filterUnits="userSpaceOnUse" color-interpolation-filters="sRGB">
<feFlood flood-opacity="0" result="BackgroundImageFix"/>
<feBlend mode="normal" in="SourceGraphic" in2="BackgroundImageFix" result="shape"/>
<feColorMatrix in="SourceAlpha" type="matrix" values="0 0 0 0 0 0 0 0 0 0 0 0 0 0 0 0 0 0 127 0" result="hardAlpha"/>
<feOffset dy="1"/>
<feGaussianBlur stdDeviation="1.5"/>
<feComposite in2="hardAlpha" operator="arithmetic" k2="-1" k3="1"/>
<feColorMatrix type="matrix" values="0 0 0 0 0 0 0 0 0 0 0 0 0 0 0 0 0 0 0.224326 0"/>
<feBlend mode="normal" in2="shape" result="effect1_innerShadow"/>
</filter>
<filter id="filter8_f" x="154.027" y="77.563" width="9.1414" height="9.80829" filterUnits="userSpaceOnUse" color-interpolation-filters="sRGB">
<feFlood flood-opacity="0" result="BackgroundImageFix"/>
<feBlend mode="normal" in="SourceGraphic" in2="BackgroundImageFix" result="shape"/>
<feGaussianBlur stdDeviation="1.5" result="effect1_foregroundBlur"/>
</filter>
<filter id="filter9_d" x="72" y="469" width="144" height="35" filterUnits="userSpaceOnUse" color-interpolation-filters="sRGB">
<feFlood flood-opacity="0" result="BackgroundImageFix"/>
<feColorMatrix in="SourceAlpha" type="matrix" values="0 0 0 0 0 0 0 0 0 0 0 0 0 0 0 0 0 0 127 0"/>
<feOffset dy="6"/>
<feGaussianBlur stdDeviation="2"/>
<feColorMatrix type="matrix" values="0 0 0 0 0 0 0 0 0 0 0 0 0 0 0 0 0 0 0.1 0"/>
<feBlend mode="normal" in2="BackgroundImageFix" result="effect1_dropShadow"/>
<feBlend mode="normal" in="SourceGraphic" in2="effect1_dropShadow" result="shape"/>
</filter>
<linearGradient id="paint0_linear" x1="278.858" y1="163.887" x2="278.858" y2="236.826" gradientUnits="userSpaceOnUse">
<stop stop-color="#1E1D28"/>
<stop offset="0.0178393" stop-color="#B4B3BE"/>
<stop offset="0.0507986" stop-color="#54545C"/>
<stop offset="0.941967" stop-color="#474650"/>
<stop offset="0.982533" stop-color="#78777F"/>
<stop offset="1" stop-color="#1E1D28"/>
</linearGradient>
<linearGradient id="paint1_linear" x1="278.858" y1="260.076" x2="278.858" y2="292.442" gradientUnits="userSpaceOnUse">
<stop stop-color="#1E1D28"/>
<stop offset="0.0178393" stop-color="#B4B3BE"/>
<stop offset="0.0507986" stop-color="#54545C"/>
<stop offset="0.941967" stop-color="#474650"/>
<stop offset="0.982533" stop-color="#78777F"/>
<stop offset="1" stop-color="#1E1D28"/>
</linearGradient>
<linearGradient id="paint2_linear" x1="143.814" y1="621.353" x2="143.814" y2="624.896" gradientUnits="userSpaceOnUse">
<stop stop-color="#777777" stop-opacity="0.86"/>
<stop offset="1" stop-color="#A3A3A3" stop-opacity="0.2"/>
</linearGradient>
<linearGradient id="paint3_linear" x1="143.814" y1="621.353" x2="143.814" y2="624.896" gradientUnits="userSpaceOnUse">
<stop stop-color="#777777" stop-opacity="0.86"/>
<stop offset="1" stop-color="#A3A3A3" stop-opacity="0.2"/>
</linearGradient>
<linearGradient id="paint4_linear" x1="143.814" y1="62.1045" x2="143.814" y2="65.6471" gradientUnits="userSpaceOnUse">
<stop stop-color="#A3A3A3" stop-opacity="0.2"/>
<stop offset="1" stop-color="#777777" stop-opacity="0.86"/>
</linearGradient>
<linearGradient id="paint5_linear" x1="143.814" y1="62.1045" x2="143.814" y2="65.6471" gradientUnits="userSpaceOnUse">
<stop stop-color="#A3A3A3" stop-opacity="0.2"/>
<stop offset="1" stop-color="#777777" stop-opacity="0.86"/>
</linearGradient>
<linearGradient id="paint6_linear" x1="272.917" y1="343.5" x2="264.234" y2="343.5" gradientUnits="userSpaceOnUse">
<stop stop-color="#B1B1B1" stop-opacity="0.35"/>
<stop offset="1" stop-color="#484848" stop-opacity="0.4"/>
</linearGradient>
<linearGradient id="paint7_linear" x1="14.4647" y1="343.5" x2="23.1477" y2="343.5" gradientUnits="userSpaceOnUse">
<stop stop-color="#B1B1B1" stop-opacity="0.35"/>
<stop offset="1" stop-color="#484848" stop-opacity="0.4"/>
</linearGradient>
<linearGradient id="paint8_linear" x1="143.815" y1="592.405" x2="143.815" y2="612.919" gradientUnits="userSpaceOnUse">
<stop stop-color="#45444E"/>
<stop offset="1" stop-color="#302F35"/>
</linearGradient>
<radialGradient id="paint9_angular" cx="0" cy="0" r="1" gradientUnits="userSpaceOnUse" gradientTransform="translate(143.815 602.662) rotate(90) scale(10.2571 10.2825)">
<stop offset="0.176245" stop-opacity="0.32"/>
<stop offset="0.26847" stop-color="white" stop-opacity="0.03"/>
<stop offset="0.306183" stop-color="#F5F5F5"/>
<stop offset="0.343727" stop-opacity="0.41"/>
<stop offset="0.502884" stop-opacity="0.43"/>
<stop offset="0.656394" stop-color="#101010" stop-opacity="0.52"/>
<stop offset="0.699482" stop-color="white" stop-opacity="0.36"/>
<stop offset="0.767284" stop-color="#E6E6E6" stop-opacity="0.09"/>
<stop offset="0.837557" stop-opacity="0.09"/>
<stop offset="1" stop-opacity="0.25"/>
</radialGradient>
<linearGradient id="paint10_linear" x1="156.382" y1="79.893" x2="162.764" y2="86.2909" gradientUnits="userSpaceOnUse">
<stop stop-color="#05406B"/>
<stop offset="1"/>
</linearGradient>
<radialGradient id="paint11_radial" cx="0" cy="0" r="1" gradientUnits="userSpaceOnUse" gradientTransform="translate(156.153 80.1209) rotate(44.9293) scale(5.97083)">
<stop stop-color="#2F9AFC" stop-opacity="0.5"/>
<stop offset="1" stop-opacity="0.5"/>
</radialGradient>
<radialGradient id="paint12_radial" cx="0" cy="0" r="1" gradientUnits="userSpaceOnUse" gradientTransform="translate(162.323 85.8193) rotate(44.9293) scale(2.58198 3.08585)">
<stop stop-color="#1F699F" stop-opacity="0.5"/>
<stop offset="1" stop-opacity="0.5"/>
</radialGradient>
<linearGradient id="paint13_linear" x1="2.17651" y1="2.16862" x2="-0.162683" y2="1.54106" gradientUnits="userSpaceOnUse">
<stop stop-color="white" stop-opacity="0.01"/>
<stop offset="1" stop-color="#C5E3FF"/>
</linearGradient>
</defs>
</svg>
