<svg width="60" height="60" viewBox="0 0 60 60" fill="none" xmlns="http://www.w3.org/2000/svg">
<g clip-path="url(#clip0)">
<path d="M30.0001 40.9889L20 34.9889V24.9888L30.0001 30.9888V40.9889Z" fill="#FA982F"/>
<path d="M30.0001 40.9889L40 34.9889V24.9888L30.0001 30.9888V40.9889Z" fill="#F77219"/>
<path d="M20 24.9888L30.0001 18.9888L40 24.9888L30.0001 30.9888L20 24.9888Z" fill="#F9B44D"/>
<path d="M29.2 0.388744L26.2 4.38871L27.8 5.58872L29 3.98875V11.9888H31V3.98875L32.2 5.58872L33.8 4.38871L30.8 0.388744C30.436 -0.0532885 29.784 -0.116218 29.3419 0.246712C29.29 0.28972 29.243 0.336712 29.2 0.388744Z" fill="#87CED9"/>
<path d="M31 55.9891V47.989H29V55.9891L27.8 54.3891L26.2 55.5891L29.2 59.5891C29.5311 60.0311 30.158 60.1201 30.6001 59.7891C30.6761 59.7322 30.743 59.6651 30.8001 59.5891L33.8001 55.5891L32.2001 54.3891L31 55.9891Z" fill="#87CED9"/>
<path d="M31 13.9888H29V15.9888H31V13.9888Z" fill="#87CED9"/>
<path d="M31 43.9888H29V45.9888H31V43.9888Z" fill="#87CED9"/>
<path d="M12 30.9887V28.9887H3.99999L5.59996 27.7887L4.39996 26.1887L0.399986 29.1887C-0.0420459 29.5198 -0.130991 30.1467 0.199947 30.5888C0.2569 30.6648 0.323931 30.7317 0.399986 30.7888L4.39996 33.7888L5.59996 32.1889L3.99999 30.9888H12V30.9887Z" fill="#87CED9"/>
<path d="M59.6 29.1887L55.6001 26.1887L54.4001 27.7887L56 28.9887H48.0001V30.9887H56.0002L54.4002 32.1887L55.6002 33.7887L59.6002 30.7887C60.0422 30.4576 60.1311 29.8307 59.8002 29.3887C59.7431 29.3127 59.6761 29.2458 59.6 29.1887Z" fill="#87CED9"/>
<path d="M16 28.9888H13.9999V30.9888H16V28.9888Z" fill="#87CED9"/>
<path d="M46 28.9888H44V30.9888H46V28.9888Z" fill="#87CED9"/>
<path d="M11.191 14.2887L10.909 12.3098L16.5651 17.9658L17.9791 16.5518L12.323 10.8958L14.3019 11.1777L14.5849 9.19772L9.63599 8.48873C9.09001 8.40775 8.58095 8.78475 8.49997 9.33072C8.48602 9.42776 8.48602 9.52678 8.49997 9.62475L9.20696 14.5737L11.191 14.2887Z" fill="#87CED9"/>
<path d="M48.809 45.6888L49.091 47.6678L43.4349 42.0117L42.0209 43.4257L47.677 49.0818L45.7 48.7978L45.417 50.7778L50.366 51.4848C50.413 51.4919 50.46 51.4948 50.508 51.4948C51.06 51.4948 51.508 51.0468 51.508 50.4948C51.508 50.4468 51.5049 50.3998 51.498 50.3528L50.791 45.4038L48.809 45.6888Z" fill="#87CED9"/>
<path d="M19.3894 20.7973L20.8037 19.3831L19.3894 17.9688L17.9752 19.3831L19.3894 20.7973Z" fill="#87CED9"/>
<path d="M40.6074 42.0097L42.0216 40.5955L40.6074 39.1812L39.1932 40.5955L40.6074 42.0097Z" fill="#87CED9"/>
<path d="M16.565 42.01L10.909 47.6661L11.191 45.6871L9.21095 45.404L8.49997 50.353C8.42193 50.9 8.80103 51.406 9.34795 51.485C9.39494 51.492 9.44299 51.4949 9.48998 51.4949C9.53802 51.4949 9.58502 51.4919 9.63201 51.485L14.581 50.778L14.298 48.798L12.319 49.0799L17.9751 43.4239L16.565 42.01Z" fill="#87CED9"/>
<path d="M43.435 17.9679L49.0911 12.3119L48.8092 14.2888L50.7892 14.5718L51.4962 9.62286C51.5412 9.31091 51.4362 8.99684 51.2131 8.77383C50.9912 8.54989 50.6762 8.44489 50.3641 8.49083L45.4152 9.19782L45.6982 11.1778L47.6771 10.8959L42.0211 16.5519L43.435 17.9679Z" fill="#87CED9"/>
<path d="M19.4 42.0094L20.8142 40.5952L19.4 39.181L17.9858 40.5952L19.4 42.0094Z" fill="#87CED9"/>
<path d="M40.6073 20.7961L42.0216 19.3818L40.6073 17.9676L39.1931 19.3818L40.6073 20.7961Z" fill="#87CED9"/>
<path d="M33.98 21.377L23.929 27.3459L25.877 28.515L35.928 22.5459L33.98 21.377Z" fill="#F77219"/>
</g>
<defs>
<clipPath id="clip0">
<rect width="60" height="60" fill="white"/>
</clipPath>
</defs>
</svg>
