<svg width="60" height="60" viewBox="0 0 60 60" fill="none" xmlns="http://www.w3.org/2000/svg">
<g clip-path="url(#clip0)">
<path d="M55.0781 55.8536H4.92188V4.71634C4.92188 2.11166 7.03354 0 9.63821 0H55.0781V55.8536Z" fill="#E0F4FE"/>
<path d="M30.2344 0H55.0781V55.8536H30.2344V0Z" fill="#BCDBFD"/>
<path d="M11.5663 12.9106H48.3984V16.4263H11.5663V12.9106Z" fill="#FED843"/>
<path d="M24.8538 28.8926H11.7188V19.0049H24.8538V28.8926Z" fill="#FD7EB8"/>
<path d="M11.6016 42.9844H25.0392V46.5H11.6016V42.9844Z" fill="#2D3C72"/>
<path d="M11.6016 37.1245H25.0392V40.6401H11.6016V37.1245Z" fill="#2D3C72"/>
<path d="M35.1123 42.9844H48.4323V46.5H35.1123V42.9844Z" fill="#2D3C72"/>
<path d="M35.1123 37.1245H48.4323V40.6401H35.1123V37.1245Z" fill="#2D3C72"/>
<path d="M28.3594 19.3564H48.3984V22.8721H28.3594V19.3564Z" fill="#2D3C72"/>
<path d="M28.3594 25.2163H48.3984V28.7319H28.3594V25.2163Z" fill="#2D3C72"/>
<path d="M28.2422 37.1677H31.7578V46.6595H28.2422V37.1677Z" fill="#FED843"/>
<path d="M11.6016 31.0762H48.3984V34.5918H11.6016V31.0762Z" fill="#FED843"/>
<path d="M15.5818 9.36938L15.569 7.32547L14.5949 8.96609H13.9284L12.9538 7.39597V9.36984H11.5764V4.8833H12.8197L14.2809 7.27374L15.7036 4.8833H16.9469L16.9597 9.36938H15.5818Z" fill="#1AAA94"/>
<path d="M20.7477 8.58755H19.0425L18.7418 9.36942H17.2037L19.1643 4.88379H20.6516L22.6126 9.36942H21.0484L20.7477 8.58755ZM20.3307 7.49808L19.8949 6.37015L19.4591 7.49808H20.3307Z" fill="#1AAA94"/>
<path d="M25.7593 7.00458H27.0731V8.90155C26.5283 9.27325 25.7785 9.47192 25.1184 9.47192C23.67 9.47192 22.6126 8.50421 22.6126 7.12634C22.6126 5.74847 23.67 4.78076 25.1505 4.78076C26.0349 4.78076 26.7462 5.08838 27.2012 5.64594L26.2335 6.49829C25.9515 6.17145 25.6247 6.00482 25.2274 6.00482C24.5609 6.00482 24.1379 6.4342 24.1379 7.12634C24.1379 7.79926 24.5609 8.24786 25.2081 8.24786C25.394 8.24786 25.5734 8.21582 25.7593 8.13892V7.00458Z" fill="#1AAA94"/>
<path d="M30.7777 8.58755H29.073L28.7718 9.36942H27.2337L29.1948 4.88379H30.6816L32.6427 9.36942H31.0789L30.7777 8.58755ZM30.3612 7.49808L29.9254 6.37015L29.4896 7.49808H30.3612Z" fill="#1AAA94"/>
<path d="M36.8468 8.19659V9.36938H32.726V8.44012L34.7768 6.05609H32.7901V4.8833H36.7442V5.81256L34.6935 8.19659H36.8468Z" fill="#1AAA94"/>
<path d="M37.2894 4.8833H38.8019V9.36938H37.2894V4.8833Z" fill="#1AAA94"/>
<path d="M43.9545 4.8833V9.36938H42.7112L41.0065 7.33142V9.36938H39.5325V4.8833H40.7758L42.4805 6.92126V4.8833H43.9545Z" fill="#1AAA94"/>
<path d="M48.4149 8.22864V9.36938H44.6851V4.8833H48.3316V6.02405H46.1719V6.54956H48.0688V7.63904H46.1719V8.22864H48.4149Z" fill="#1AAA94"/>
<path d="M30.2344 12.9106H48.3984V16.4263H30.2344V12.9106Z" fill="#EDBE2B"/>
<path d="M35.1123 42.9844H48.4323V46.5H35.1123V42.9844Z" fill="#1A2958"/>
<path d="M35.1123 37.1245H48.4323V40.6401H35.1123V37.1245Z" fill="#1A2958"/>
<path d="M30.2344 19.3564H48.3984V22.8721H30.2344V19.3564Z" fill="#1A2958"/>
<path d="M30.2344 25.2163H48.3984V28.7319H30.2344V25.2163Z" fill="#1A2958"/>
<path d="M30.2344 37.1677H31.7578V46.6595H30.2344V37.1677Z" fill="#EDBE2B"/>
<path d="M30.2344 31.0762H48.3984V34.5918H30.2344V31.0762Z" fill="#EDBE2B"/>
<path d="M30.6816 4.8833H30.2344V7.17029L30.3612 7.49805H30.2344V8.58752H30.7777L31.0789 9.36938H32.6427L30.6816 4.8833Z" fill="#149084"/>
<path d="M36.8468 8.19659V9.36938H32.726V8.44012L34.7768 6.05609H32.7901V4.8833H36.7442V5.81256L34.6935 8.19659H36.8468Z" fill="#149084"/>
<path d="M37.2894 4.8833H38.8019V9.36938H37.2894V4.8833Z" fill="#149084"/>
<path d="M43.9545 4.8833V9.36938H42.7112L41.0065 7.33142V9.36938H39.5325V4.8833H40.7758L42.4805 6.92126V4.8833H43.9545Z" fill="#149084"/>
<path d="M48.4149 8.22864V9.36938H44.6851V4.8833H48.3316V6.02405H46.1719V6.54956H48.0688V7.63904H46.1719V8.22864H48.4149Z" fill="#149084"/>
<path d="M55.0781 60H9.17358C6.82526 60 4.92188 58.0966 4.92188 55.7483C4.92188 53.4005 6.82526 51.4971 9.17358 51.4971H55.0781V60Z" fill="#9BBAD9"/>
<path d="M30.2344 51.4971H55.0781V60H30.2344V51.4971Z" fill="#62739A"/>
</g>
<defs>
<clipPath id="clip0">
<rect width="60" height="60" fill="white"/>
</clipPath>
</defs>
</svg>
