<svg width="60" height="60" viewBox="0 0 60 60" fill="none" xmlns="http://www.w3.org/2000/svg">
<g clip-path="url(#clip0)">
<path d="M56.3768 17.1217L45.5479 6.27222V49.7494H60.0402V25.9309C60.0402 22.6237 58.7213 19.4531 56.3768 17.1217Z" fill="#FFB782"/>
<path d="M8.46373 41.8269L0.277297 20.5748C-0.544356 18.4414 0.518564 16.045 2.65312 15.2229L41.293 0.339276C43.4264 -0.482378 45.8228 0.580543 46.6445 2.7151L54.8309 23.9672C55.6526 26.1005 54.5896 28.497 52.4551 29.319L13.8164 44.2027C11.6818 45.0243 9.28657 43.9602 8.46373 41.8269Z" fill="#DE4C3C"/>
<path d="M49.5951 10.3713L3.26522 28.3297L6.35018 36.3378L52.6821 18.3878L49.5951 10.3713Z" fill="#7A4930"/>
<path d="M0.00025177 26.9758V4.20203C0.00025177 1.91535 1.85432 0.0612793 4.14101 0.0612793H45.5478C47.8345 0.0612793 49.6885 1.91535 49.6885 4.20203V26.9758C49.6885 29.2625 47.8345 31.1165 45.5478 31.1165H4.14101C1.85432 31.1165 0.00025177 29.2625 0.00025177 26.9758Z" fill="#4398D1"/>
<path d="M45.5479 0.0610352H41.1485L10.0932 31.1163H45.5479C47.8346 31.1163 49.6887 29.2622 49.6887 26.9755V4.20179C49.6887 1.9151 47.8346 0.0610352 45.5479 0.0610352Z" fill="#3E8CC7"/>
<path d="M4.14114 16.6238H8.2819V18.6942H4.14114V16.6238Z" fill="#5EB3D1"/>
<path d="M4.14114 22.8347H8.2819V24.9051H4.14114V22.8347Z" fill="#5EB3D1"/>
<path d="M22.7742 22.8347H26.9149V24.9051H22.7742V22.8347Z" fill="#5EB3D1"/>
<path d="M10.3523 16.6238H14.4926V18.6942H10.3523V16.6238Z" fill="#5EB3D1"/>
<path d="M16.563 16.6238H20.7038V18.6942H16.563V16.6238Z" fill="#5EB3D1"/>
<path d="M22.7742 16.6238H26.9149V18.6942H22.7742V16.6238Z" fill="#5EB3D1"/>
<path d="M42.4424 4.2019H44.5127V7.30747H42.4424V4.2019Z" fill="#5EB3D1"/>
<path d="M38.3016 4.2019H40.372V7.30747H38.3016V4.2019Z" fill="#5EB3D1"/>
<path d="M34.1609 4.2019H36.2312V7.30747H34.1609V4.2019Z" fill="#5EB3D1"/>
<path d="M30.0205 4.2019H32.0904V7.30747H30.0205V4.2019Z" fill="#5EB3D1"/>
<path d="M41.4072 49.7493H60.0402V60.1008H41.4072V49.7493Z" fill="#88B337"/>
<path d="M38.369 18.7611C36.6131 17.0117 33.7718 17.0168 32.0223 18.7726C30.3307 20.4702 30.2721 23.1978 31.8888 24.9671L40.372 34.2216C37.8222 38.6841 37.9312 44.1869 40.6545 48.5451L41.4072 49.7491H54.8642V35.2568L38.369 18.7611Z" fill="#FFB782"/>
<path d="M44.5127 52.855H46.5831V54.9254H44.5127V52.855Z" fill="#6B962A"/>
<path d="M4.14114 10.827V5.85829C4.14114 4.94314 4.88237 4.2019 5.79752 4.2019H10.7663C11.6814 4.2019 12.4223 4.94314 12.4223 5.85829V10.827C12.4223 11.7422 11.6814 12.4834 10.7663 12.4834H5.79752C4.88237 12.4834 4.14114 11.7422 4.14114 10.827Z" fill="#FDB62F"/>
<path d="M4.14114 7.30737H7.24671V9.37775H4.14114V7.30737Z" fill="#FD7B2F"/>
<path d="M9.31711 7.30737H12.4223V9.37775H9.31711V7.30737Z" fill="#FD7B2F"/>
<path d="M53.829 35.2572C53.5548 35.2572 53.291 35.1482 53.0973 34.9537L48.9566 30.813C48.5592 30.4021 48.5707 29.7469 48.9827 29.3491C49.3844 28.9621 50.0199 28.9621 50.4204 29.3491L54.5611 33.4899C54.9648 33.8948 54.9648 34.55 54.5611 34.9537C54.3662 35.1482 54.1035 35.2572 53.829 35.2572Z" fill="#F2A46F"/>
</g>
<defs>
<clipPath id="clip0">
<rect width="60" height="60" fill="white"/>
</clipPath>
</defs>
</svg>
