<svg width="60" height="60" viewBox="0 0 60 60" fill="none" xmlns="http://www.w3.org/2000/svg">
<path d="M45.9375 6.5625V53.4375H53.4375C56.5439 53.4375 59.0625 50.9189 59.0625 47.8125V9.375C59.0625 7.82181 57.8032 6.5625 56.25 6.5625H45.9375Z" fill="#FFD54F"/>
<path d="M45.9375 6.5625H56.25C54.6968 6.5625 53.4375 7.82181 53.4375 9.375V47.8125H45.9375V6.5625Z" fill="#FFE082"/>
<path d="M53.4375 53.4375H6.5625C3.45612 53.4375 0.9375 50.9189 0.9375 47.8125V0.9375H47.8125V47.8125C47.8125 50.9189 50.3311 53.4375 53.4375 53.4375Z" fill="#EEEEEE"/>
<path d="M20.625 60V49.6875C19.455 49.6875 18.3879 49.0192 17.878 47.9663L13.3127 38.5432C13.0202 38.0278 12.9524 37.4144 13.125 36.8472C13.298 36.2801 13.6963 35.8086 14.2264 35.5435C15.2046 35.0546 16.3939 35.3728 16.9968 36.2851L19.3492 39.8474H19.6875V25.3125C19.6875 24.277 20.527 23.4375 21.5625 23.4375C22.598 23.4375 23.4375 24.277 23.4375 25.3125V31.4062H25.3125C26.348 31.4062 27.1875 32.2458 27.1875 33.2812H29.0625C30.098 33.2812 30.9375 34.1208 30.9375 35.1562H32.8125C33.848 35.1562 34.6875 35.9958 34.6875 37.0312V45.9375L32.8125 49.6875V60H20.625Z" fill="#FFE082"/>
<path d="M6.5625 6.5625H42.1875V19.6875H6.5625V6.5625Z" fill="#FF8A65"/>
<path d="M11.25 13.125H9.375V9.375H13.125V11.25H11.25V13.125Z" fill="white"/>
<path d="M39.375 16.875H35.625V15H37.5V13.125H39.375V16.875Z" fill="white"/>
<path d="M30.9375 14.0625H29.0625V12.1875H30.9375V14.0625ZM27.1875 14.0625H25.3125V12.1875H27.1875V14.0625ZM23.4375 14.0625H21.5625V12.1875H23.4375V14.0625ZM19.6875 14.0625H17.8125V12.1875H19.6875V14.0625Z" fill="white"/>
<path d="M56.25 5.625H48.75V0H0V47.8125C0.00457764 51.4348 2.94022 54.3704 6.5625 54.375H19.6875V60H21.5625V50.625H24.8438V48.75H20.625C19.8152 48.7468 19.0778 48.2845 18.7221 47.5575L14.128 38.0823C13.8103 37.5082 14.0007 36.7859 14.5601 36.4435C15.1195 36.1006 15.8492 36.2595 16.2158 36.8033L18.8438 40.7812H20.625V25.3125C20.625 24.7948 21.0448 24.375 21.5625 24.375C22.0802 24.375 22.5 24.7948 22.5 25.3125V36.0938H24.375V32.3438H25.3125C25.8302 32.3438 26.25 32.7635 26.25 33.2812V37.9688H28.125V34.2188H29.0625C29.5802 34.2188 30 34.6385 30 35.1562V39.8438H31.875V36.0938H32.8125C33.3302 36.0938 33.75 36.5135 33.75 37.0312V45.7164L31.875 49.4664V60H33.75V54.375H53.4375C57.0598 54.3704 59.9954 51.4348 60 47.8125V9.375C60 7.30408 58.3209 5.625 56.25 5.625ZM48.75 7.5H53.0214C52.684 8.06763 52.5037 8.7149 52.5 9.375V46.875H48.75V7.5ZM33.75 52.5V49.9086L35.625 46.1586V45H43.125V43.125H35.625V41.25H43.125V39.375H35.625V37.5H43.125V35.625H35.2341C34.7351 34.758 33.8127 34.2224 32.8125 34.2188H31.7148C31.6553 34.0558 31.5807 33.8988 31.4914 33.75H43.125V31.875H27.7414C27.2401 31.0071 26.315 30.471 25.3125 30.4688H24.375V30H43.125V28.125H24.375V26.25H43.125V24.375H24.2024C23.811 23.2516 22.7518 22.4991 21.5625 22.4991C20.3732 22.4991 19.314 23.2516 18.9226 24.375H5.625V26.25H18.75V28.125H5.625V30H18.75V31.875H5.625V33.75H18.75V37.2423L17.7759 35.7683C16.9098 34.4627 15.2069 34.0073 13.8048 34.7063C13.3759 34.9232 13.0046 35.2377 12.7199 35.625H5.625V37.5H12.1033C12.0964 38.0077 12.2214 38.5085 12.4658 38.9529L12.6704 39.375H5.625V41.25H13.5796L14.4891 43.125H5.625V45H15.3973L17.0343 48.3751C17.5584 49.4453 18.5303 50.2277 19.6875 50.5115V52.5H6.5625C3.97476 52.4968 1.8782 50.4002 1.875 47.8125V1.875H46.875V47.8125C46.8745 49.5781 47.5882 51.2691 48.8539 52.5H33.75ZM58.125 47.8125C58.1273 50.2208 56.3045 52.2391 53.9085 52.4808C51.5126 52.7229 49.3231 51.1102 48.8438 48.75H54.375V9.375C54.375 8.33954 55.2145 7.5 56.25 7.5C57.2855 7.5 58.125 8.33954 58.125 9.375V47.8125Z" fill="black"/>
<path d="M5.625 20.625H43.125V5.625H5.625V20.625ZM7.5 7.5H41.25V18.75H7.5V7.5Z" fill="black"/>
</svg>
